<?xml version="1.0" encoding="utf-8"?>
<!-- Generator: Adobe Illustrator 22.0.0, SVG Export Plug-In . SVG Version: 6.00 Build 0)  -->
<svg version="1.1" id="Layer_1" xmlns="http://www.w3.org/2000/svg" xmlns:xlink="http://www.w3.org/1999/xlink" x="0px" y="0px"
	 viewBox="0 0 531.2 425.7" style="enable-background:new 0 0 531.2 425.7;" xml:space="preserve">
<style type="text/css">
	.st0{clip-path:url(#SVGID_2_);fill:#FFDBB8;}
	.st1{fill:#31313A;}
	.st2{fill:#FFB666;}
	.st3{fill:#FF9F40;}
	.st4{display:none;fill:#333333;}
	.st5{fill:#333333;}
	.st6{fill:#F1C27D;}
	.st7{fill:#E0AC69;}
	.st8{fill:#222222;}
	.st9{fill:#C68642;}
	.st10{fill:#FFFFFF;}
</style>
<g>
	<defs>
		<rect id="SVGID_1_" x="-76" y="-9" width="650" height="500"/>
	</defs>
	<clipPath id="SVGID_2_">
		<use xlink:href="#SVGID_1_"  style="overflow:visible;"/>
	</clipPath>
	<path class="st0" d="M4.6,101.7c0,38.1,40.4,68.9,90.3,68.9c12,0,23.4-1.8,33.9-5l39.6,10.6L150.6,156c21-12.6,34.6-32.2,34.6-54.2
		c0-38.1-40.4-68.9-90.3-68.9C45,32.8,4.6,63.6,4.6,101.7"/>
</g>
<g>
	<path class="st1" d="M528.9,428.8H2.3c-0.5,0-1-0.4-1-1c0-0.5,0.4-1,1-1h526.6c0.5,0,1,0.4,1,1
		C529.9,428.3,529.4,428.8,528.9,428.8"/>
	<path class="st2" d="M436.9,388.6c-2,2.4-4,4.8-6.1,7.1c-0.6,0.7-1.2,1.3-1.8,2c-5.5,5.9-11.3,11.5-17.4,16.8
		c-0.6,0.6-1.3,1.1-1.9,1.6c-0.1,0.1-0.2,0.2-0.3,0.3c-6.2,5.2-13.3,10.1-21.4,10.1h-0.4c-7.5-0.2-14.1-4.7-19.7-9.9
		c-0.7-0.6-1.4-1.3-2-1.9l-1.3-1.3c-4.1-4.2-8.1-8.5-12-12.9c-0.6-0.6-1.1-1.3-1.6-1.9c-6.1-7.2-11.8-14.7-17.1-22.4
		c1.4,7.6,2.9,15.2,4.3,22.8c0.1,0.6,0.2,1.3,0.4,1.9c0.9,4.8,1.8,9.5,2.7,14.3c0.1,0.6,0.2,1.3,0.4,1.9c0.6,3.3,1.3,6.6,1.9,10
		H162.5c0.1-0.6,0.3-1.3,0.4-1.9c1.5-7.5,3-14.9,4.5-22.4c0.1-0.6,0.3-1.3,0.4-1.9c0.5-2.4,1-4.9,1.5-7.3c-2.2,2.5-4.5,4.9-6.8,7.3
		c-0.6,0.6-1.3,1.3-1.9,1.9c-3.2,3.2-6.6,6.2-10,9.1c-7.3,6.1-16.6,11.9-25.8,9.3c-5.8-1.7-10.3-6.6-12.7-12.2
		c-0.9-2.2-1.6-4.4-2.1-6.7c-0.1-0.6-0.2-1.3-0.3-1.9c-0.5-3-0.7-6.1-0.8-9.2c0-1.4-0.1-2.9-0.1-4.4c0-0.6,0-1.3,0-1.9
		c0-13.6,1.5-27.2,3.8-40.6c0.1-0.6,0.2-1.3,0.3-1.9c1.1-6.2,2.2-12.3,3.5-18.4c0.2-1.2,0.5-2.3,0.7-3.5c0.1-0.7,0.3-1.3,0.4-2
		c1.7-7.9,3.5-15.7,6-23.3c0.2-0.7,0.4-1.3,0.7-2c2.3-6.6,5.1-13.1,8.6-19.1c0.4-0.7,0.8-1.4,1.3-2c0.8-1.3,1.6-2.5,2.5-3.7
		c5.2-7.3,11.7-13.5,19-18.8c1-0.8,2-1.5,3.1-2.2c4.7-3.2,9.6-6.1,14.7-8.6c14.2-7.1,29.4-11.9,44.5-16.7l0,0
		c4.5,7.4,10,14.1,16.3,19.9c0.7,0.6,1.3,1.2,2,1.8c2.5,2.2,5.1,4.2,7.9,6.1c5.1,3.5,10.9,6.5,17,6.3h0c0.3,0,0.6,0,0.9-0.1
		c0.3,0,0.6-0.1,0.9-0.1c6.9-1,12.5-6.6,15.4-13c0.2-0.5,0.4-0.9,0.6-1.4c0.3-0.6,0.5-1.3,0.8-2c2-5.4,3-11.3,3.6-17.1
		c17.2,3,35.1,6.3,50,15.1c1,0.6,2,1.2,3,1.9c1.4,1,2.9,2,4.2,3.1c5.3,4.2,9.8,9.1,13.8,14.5c0.5,0.6,0.9,1.3,1.4,1.9
		c5,7,9.2,14.6,13.2,22.2c0.4,0.7,0.7,1.3,1.1,2c0.3,0.6,0.7,1.3,1,1.9c3.4,6.5,6.7,13,9.9,19.5c0.3,0.6,0.6,1.3,0.9,1.9
		c4.5,9.2,8.9,18.5,13.1,27.9c0.3,0.6,0.6,1.3,0.8,1.9c3.7,8.3,7.3,16.7,10.7,25.1c0.3,0.6,0.5,1.3,0.8,1.9c0.1,0.2,0.2,0.5,0.3,0.7
		c0.7-0.3,1.3-0.5,2-0.8c1.8-0.7,3.5-1.5,5.3-2.2c5.5-2.3,10.9-4.5,16.4-6.8l0.1,0.1c-0.4,0.7-0.8,1.4-1.1,2.2
		c-0.5,1.2-0.9,2.5-1.1,3.9c-0.1,0.6-0.2,1.3-0.2,1.9c-0.1,1.8-0.1,3.6,0.2,5.3c0.5,3.7,1.7,7.3,2.9,10.9
		C433.1,381.9,434.5,385.6,436.9,388.6"/>
	<path class="st3" d="M234,241.8c0.7,0.6,1.3,1.2,2,1.8c-8,0.5-15.9,1-23.9,1.5c-18.9,1.2-37.8,2.7-56.7,4.3c1-0.8,2-1.5,3.1-2.2
		c4.1-0.3,8.3-0.7,12.4-1C192,244.5,213,243,234,241.8"/>
	<path class="st3" d="M336.1,239.4c-10.2,0.3-20.3,0.6-30.5,0.9c-9,0.3-17.9,0.7-26.9,1.1c0.3-0.6,0.5-1.3,0.8-2
		c17.9-0.8,35.7-1.4,53.6-1.9C334.2,238.1,335.2,238.7,336.1,239.4"/>
	<path class="st3" d="M355.6,258.8c-9.5,0.3-19,0.7-28.6,1.1c-36.9,1.6-73.7,3.8-110.5,6.6c-28,2.1-55.9,4.6-83.8,7.5
		c0.4-0.7,0.8-1.4,1.3-2c11.5-1.2,22.9-2.3,34.4-3.3c30.9-2.8,61.9-5.2,92.9-7.1c0.3,0,0.6,0,0.9-0.1c5.5-0.4,11.1-0.7,16.6-1
		c25.1-1.4,50.3-2.6,75.5-3.5C354.7,257.6,355.1,258.2,355.6,258.8"/>
	<path class="st3" d="M370.9,284.9c-8.8,0.4-17.7,0.7-26.5,1.1c-41.6,1.7-83.2,3.4-124.8,5.1c-32.1,1.3-64.1,2.6-96.2,3.9
		c0.2-0.7,0.4-1.3,0.7-2c13.5-0.6,27-1.1,40.5-1.7c41.6-1.7,83.2-3.4,124.8-5.1c26.8-1.1,53.7-2.2,80.5-3.3
		C370.2,283.7,370.6,284.3,370.9,284.9"/>
	<path class="st3" d="M381.8,306.3c-11.6,0-23.2,0.1-34.8,0.3c-45.6,0.7-91.1,2.6-136.6,5.7c-31.1,2.1-62.2,4.8-93.3,7.9
		c0.1-0.7,0.3-1.3,0.4-2c11.1-1.1,22.2-2.2,33.3-3.2c45.4-4.1,90.9-7,136.5-8.7c31.2-1.2,62.4-1.8,93.6-1.9
		C381.1,305.1,381.4,305.7,381.8,306.3"/>
	<path class="st3" d="M395.7,336.1c-12.3,0.5-24.6,1-36.9,1.5c-48.6,1.9-97.2,3.4-145.8,4.6c-33.5,0.8-67,1.4-100.5,1.9
		c0.1-0.6,0.2-1.3,0.3-1.9c12-0.2,23.9-0.3,35.9-0.5c48.6-0.8,97.2-2,145.8-3.6c33.5-1.1,66.9-2.3,100.4-3.8
		C395.1,334.9,395.4,335.5,395.7,336.1"/>
	<path class="st3" d="M406.4,361.2c0.3,0.6,0.5,1.3,0.8,1.9c-13.5,0.7-27.1,1.4-40.6,2.2c-52.2,3.1-104.3,6.9-156.4,11.5
		c-33.8,3-67.6,6.3-101.4,9.9c0-0.6,0-1.3,0-1.9c11.1-1.2,22.2-2.4,33.3-3.5c52-5.3,104.1-9.8,156.2-13.5
		C334.3,365.3,370.3,363.1,406.4,361.2"/>
	<path class="st3" d="M429,360.1c-0.1,0.6-0.2,1.3-0.2,1.9c-6.4,0.3-12.9,0.6-19.3,0.9c1.8-0.7,3.5-1.5,5.3-2.2
		C419.5,360.6,424.2,360.3,429,360.1"/>
	<path class="st3" d="M156.3,400.8c2.1,0,4.1,0,6.2,0c-0.6,0.6-1.3,1.3-1.9,1.9c-16.8-0.1-33.7-0.3-50.5-0.6
		c-0.1-0.6-0.2-1.3-0.3-1.9C125.2,400.5,140.7,400.7,156.3,400.8"/>
	<path class="st3" d="M338,399c0.1,0.6,0.2,1.3,0.4,1.9c-37.4,1-74.8,1.6-112.2,1.8c-19.6,0.1-39.2,0.1-58.7,0
		c0.1-0.6,0.3-1.3,0.4-1.9c49.2,0.3,98.4-0.2,147.7-1.3C322.9,399.4,330.5,399.2,338,399"/>
	<path class="st3" d="M430.7,395.7c-0.6,0.7-1.2,1.3-1.8,2c-14.6,0.6-29.1,1.2-43.7,1.7c-10.9,0.4-21.9,0.8-32.8,1.1
		c-0.6-0.6-1.1-1.3-1.6-1.9C377.5,397.9,404.1,396.9,430.7,395.7"/>
	<path class="st3" d="M341,415.2c0.1,0.6,0.2,1.3,0.4,1.9c-39.9,0.9-79.7,2.7-119.5,5.4c-19.6,1.3-39.1,2.9-58.7,4.6h-0.7
		c0.1-0.6,0.3-1.3,0.4-1.9c45.2-4.1,90.6-7,136-8.7C312.9,415.9,327,415.5,341,415.2"/>
	<path class="st3" d="M411.5,414.5c-0.6,0.6-1.3,1.1-1.9,1.6c-0.1,0.1-0.2,0.2-0.3,0.3c-13.8,0-27.6,0-41.5,0.2
		c-0.7-0.6-1.4-1.3-2-1.9C381,414.5,396.2,414.4,411.5,414.5"/>
	<path class="st4" d="M312.7,116.7c2.5,11.7,0.4,24.4-5.8,34.6c0-10.8-1.3-21.6-3.7-32.1c-2.6-5.6-8.5-9.4-14.6-9.5
		c-8-0.1-15.1,5.5-23.1,5.8c-4.2,0.1-8.3-1.3-12.3-2.6c-4-1.3-8.1-2.7-12.3-2.3c-3.2,0.3-6.5,1.7-8.5,4.2c1.6,13-0.9,26.4-7,38
		c-0.7-3.8-4.6-6.9-8.6-6.8c-0.2,0-0.4,0-0.6,0c-2.7-11.1-5.5-22.2-8.2-33.3c-1-4.2-2.1-8.7-0.6-12.8c1.4-4,5.3-7,9.5-7.3
		c4.2-0.4,8.5,1.9,10.6,5.6c1.1-7.4,5.3-14.3,11.3-18.8c6-4.4,13.9-6.4,21.3-5.2c8.7,1.3,17.1,6.7,25.6,4.7c4.3-1,7.9-3.7,11.8-5.8
		c3.9-2.1,8.6-3.5,12.6-1.6c7,3.2,7.6,14.3,14.8,17.3c4.5,1.9,10.8,0.1,14,3.8c2.9,3.4,0.8,8.7-2,12.1
		C331.1,111.9,322,116.3,312.7,116.7"/>
	<path class="st5" d="M239.9,149.9c-3.8,3.8-23.7,9-31.7-8.5c-7.9-17.5-1.9-31.1-1.9-31.1c-3.5,2.9-10.7,4-10.7,4
		c2.9-1,7.8-7.4,12.5-13.5c4.7-6.2,15.6-13.5,27.1-16.5c11.5-2.8,10.2-2.5,20.9-7.1c10.7-4.6,21.1-19.6,21.1-19.6
		c2.2,10.2,0.3,16.5,0.3,16.5s24,0.1,31.9,6.3c8.1,6.2,18.7,15.5,18.7,15.5c-4.6,0.7-12.8,0-12.8,0s4,4.9,6.9,17.4
		s-8.5,28.3-8.5,28.3c0-4.6-2.4-13-2.4-13c-2.9,3.7-12.5,4.7-12.5,4.7c1.2-3.2,2.4-7.9,2.4-7.9c-6.2,5.7-25.8,6.8-25.8,6.8
		c4.3-2.8,6.9-9.4,6.9-9.4s-8.4,2.5-16.6,3.2c-8.1,0.7-18.7,5.2-18.7,5.2s-4.4,3.7-5.4,10.3C241.6,141.4,243.8,145.9,239.9,149.9z"
		/>
	<path class="st6" d="M306.9,151.3c0,11.6-1.4,23.1-4.2,34.4c-2.2,8.7-5.3,17.6-11.5,24.1c-2.7,2.9-6,5.2-9.5,6.9l0.2,0.4l1.3,5.3
		c-0.7,7-2.1,14.1-5,20.4c-2.9,6.4-8.5,11.9-15.4,13c-6.7,1-13.2-2.3-18.8-6.1c-10.6-7.3-19.6-16.8-26.2-27.8l0,0c0,0,0.1,0,0.1,0
		c2.2-13.8,4.7-27.5,6.9-41.3l-0.4-0.2c-7.9-0.5-14.8-6.7-17.5-14.2c-1.5-4.1-1.8-8.8-0.1-12.9c1.6-3.9,5.3-7,9.5-7.3
		c0.2,0,0.4,0,0.6,0c4,0,7.9,3,8.6,6.8c6.2-11.5,8.6-25,7-38c2-2.5,5.3-3.9,8.5-4.2c4.2-0.3,8.3,1,12.3,2.3c4,1.3,8.1,2.8,12.3,2.6
		c8-0.2,15.1-5.9,23.1-5.8c6.1,0.1,12.1,3.9,14.6,9.5C305.7,129.8,306.9,140.6,306.9,151.3"/>
	<path class="st6" d="M483.4,378c5.8-2,12.1-2.8,18.2-2.2c1.2,0.1,2.5,0.3,3.5,0.9c1.1,0.6,2,1.6,2.2,2.8c0.3,2.2-1.7,3.9-3.5,5
		c-4.7,2.9-9.8,5.2-15.1,6.8c-1.8,2.4-4.2,4.2-7,5.2c-3.5,1.2-7.4,1.1-10.7-0.4l0-0.2c-5.8,1.4-12.3,0-16.9-3.9
		c-4.6,2.5-10.7,2.2-14.8-1.1c-0.9-0.7-1.6-1.4-2.3-2.3c-2.4-2.9-3.8-6.7-5-10.3c-1.2-3.6-2.4-7.2-2.9-10.9
		c-0.5-3.7-0.3-7.6,1.2-11.1c0.3-0.8,0.7-1.5,1.1-2.2c2.5-4,6.6-6.9,11.2-8.3c5.3-1.6,11.1-1.3,16.4,0.1c3.5,0.9,6.8,2.3,10.1,3.9
		c10.5,3,21,6.3,31.3,9.9c1.1,0.4,2.1,0.8,3,1.4c0.9,0.7,1.5,1.8,1.4,2.9c-0.1,1.1-0.9,2-1.8,2.5c-0.9,0.5-2,0.7-3.1,0.9
		c-8.2,1.3-16.7,0.8-24.7-1.5C477.8,370,480.6,374,483.4,378L483.4,378z"/>
	<path class="st6" d="M197.1,310c12.8-10.9,28.1-18.9,44.4-23.1c2.2-0.6,5.3-0.5,5.7,1.7c0.3,1.4-1,2.7-2.1,3.6
		c-4.2,3.5-8.4,6.9-12.6,10.4l0.1,0.1c5.8-2.8,11.7-5.2,17.8-7.3c1.2-0.4,2.4-0.8,3.6-0.6c1.2,0.1,2.5,0.9,2.8,2.1
		c0.4,1.7-1.1,3.2-2.5,4.2c-11,8.3-22.5,15.8-34.6,22.4l0,0c12-4.4,24.5-7.6,37.1-9.7c2.2-0.4,5.1-0.4,6.1,1.7
		c0.5,1.1,0.2,2.4-0.4,3.4c-0.6,1-1.6,1.7-2.6,2.4c-11.7,8.6-25.6,14.3-40,16.5l0,0.1c10.2-0.9,20.4-1,30.6-0.2
		c1.1,0.1,2.2,0.2,3.2,0.6c1,0.5,1.8,1.4,2,2.4c0.1,1.1-0.6,2.3-1.6,2.9c-1,0.6-2.1,0.9-3.3,1.1c-11.2,2.3-22.5,4.1-33.8,5.4
		c-7.5,6.7-18.2,9.6-28.1,7.7c-7.6-8.9-15.2-17.7-22.9-26.6c11.6-14.7,23.3-29.3,34.9-44c1.3-1.7,3.4-3.5,5.3-2.6
		c2.2,1.1,1.4,4.4,0.3,6.5C203.3,297.5,200.2,303.7,197.1,310"/>
	<path class="st7" d="M221.1,172.3c-2.4,0.7-5.3,0.1-6.2-2.5c-0.3-1-0.2-2.2,0.6-3c0.7-0.7,1.9-1.1,2.8-0.6c0.7,0.3,1.4-0.1,1.5-0.8
		c0.2-2.7,0.5-5.4,0.5-8.1c0-2,0.1-4.6-1.7-6c-1.4-1.2-3.5-0.9-5,0.1c-1.9,1.3-2.5,3.6-3,5.7c-0.3,1.2,1.6,1.7,1.9,0.5
		c0.4-1.6,0.8-3.6,2.2-4.6c1.3-0.9,2.9-0.6,3.4,1c0.5,1.7,0.3,3.6,0.2,5.3c-0.1,1.6-0.2,3.2-0.3,4.8c-2.9-0.4-5.5,2.3-5.1,5.3
		c0.6,4.2,5.1,5.7,8.7,4.7C222.9,173.8,222.3,171.9,221.1,172.3"/>
	<path class="st7" d="M281.3,216.3c-16,3.3-32.8-1.9-44.3-13.6c-0.9-0.9-2.2,0.5-1.4,1.4c11.9,12.2,29.4,17.5,46.1,14.1
		C283,217.9,282.5,216,281.3,216.3"/>
	<path class="st1" d="M191.8,360.2c-8.5-10.7-17.5-21.1-26.8-31.1c-0.2-0.2-0.4-0.3-0.6-0.3c-0.3-0.3-0.8-0.3-1.2,0
		c-10.3,10.1-21,19.7-32.1,28.9c-1,0.8,0.4,2.2,1.4,1.4c10.9-9,21.4-18.5,31.5-28.3c9.1,9.7,17.8,19.8,26.1,30.2
		c-7.3,10.1-14.3,20.5-21,31.1c-0.7,1.1,1,2,1.7,1c6.7-10.7,13.8-21.1,21.1-31.3c0.2-0.2,0.2-0.4,0.2-0.6
		C192.1,360.8,192.1,360.5,191.8,360.2"/>
	<path class="st1" d="M329.8,311.3c-0.6-6.1-1.2-12.1-1.8-18.1c-0.1-1.2-2.1-1.2-1.9,0c2.3,21.2,4,42.4,5.1,63.6
		c0.3,6.1,0.6,12.1,0.8,18.2c0,1.2,2,1.2,1.9,0C333.1,353.7,331.7,332.5,329.8,311.3"/>
	<path class="st1" d="M406.2,363.3c-8.4,2.9-16.6,6.6-24.2,11.3c-1.1,0.6-0.1,2.3,1,1.7c7.5-4.5,15.4-8.2,23.7-11.1
		C407.9,364.7,407.4,362.9,406.2,363.3"/>
	<path class="st1" d="M402.4,360.9c-4,0.4-8,0.7-12,1.1c-0.5,0-1,0.4-1,1c0,0.5,0.4,1,1,1c4-0.4,8-0.7,12-1.1c0.5,0,1-0.4,1-1
		C403.4,361.4,402.9,360.8,402.4,360.9"/>
	<path class="st1" d="M272,250.3c-6.4,6-16.1,4.7-23.3,1c-7.8-4-14.7-10.4-20.5-16.9c-3.4-3.8-6.4-7.8-9.1-12.1
		c-0.7-1-2.3-0.1-1.7,1c5.1,8.1,11.5,15.5,18.8,21.7c6.8,5.8,15,11.5,24.3,11.5c4.7,0,9.3-1.5,12.7-4.7
		C274.2,250.9,272.9,249.5,272,250.3"/>
	<path class="st7" d="M461.6,370.3c-2.5-1.1-5.3,0.8-7,2.4c-2.4,2.1-4.2,4.8-5.9,7.4c-0.7,1,1,2,1.7,1c1.6-2.5,3.3-4.9,5.5-6.9
		c1.1-0.9,2.4-2,3.8-2.2c1.6-0.3,2.1,1,2.1,2.4c-0.1,2.8-1.2,5.9-2.4,8.5c-1.3,2.8-3,5.3-5.1,7.6c-0.8,0.9,0.5,2.3,1.4,1.4
		c3.9-4.2,6.7-9.5,7.8-15.1C463.8,374.4,464.1,371.4,461.6,370.3"/>
	<path class="st7" d="M479.1,376.2c-2.2-1.5-5.4,0-7.4,1.2c-2.8,1.6-5,3.9-7.3,6.2c-0.9,0.9,0.5,2.3,1.4,1.4
		c2.1-2.1,4.3-4.3,6.9-5.9c1.2-0.7,2.6-1.4,4.1-1.5c1.6-0.1,2,1.2,1.9,2.6c-0.3,2.8-1.8,5.5-3.3,7.8c-1.7,2.4-3.8,4.5-6.1,6.4
		c-1,0.8,0.4,2.1,1.4,1.4c4.1-3.4,7.8-7.7,9.4-12.9C480.6,380.7,481.2,377.6,479.1,376.2"/>
	<path class="st7" d="M495,378.8c-0.9-2.2-3.3-2.1-5.2-1.7c-2.6,0.5-4.9,1.7-7,3.3c-1,0.8,0.4,2.1,1.4,1.4c1.9-1.5,4.1-2.5,6.5-2.9
		c0.9-0.2,2.2-0.3,2.5,0.8c0.3,1-0.2,2.3-0.5,3.2c-1.6,4.5-5.1,8-8.6,10.9c-1,0.8,0.4,2.2,1.4,1.4c3.4-2.8,6.7-6.1,8.5-10.2
		C494.8,383.2,495.8,380.8,495,378.8"/>
	<path class="st7" d="M465.9,383.3c-1-1.1-2-2.1-3.1-3.2c-0.3-0.4-1-0.4-1.4,0c-0.4,0.4-0.4,1,0,1.4c1,1.1,2,2.1,3.1,3.2
		c0.3,0.4,1,0.4,1.4,0C466.2,384.3,466.2,383.7,465.9,383.3"/>
	<path class="st7" d="M449.9,380.3c-1.2-1.7-2.3-3.4-3.2-5.2c-0.2-0.5-0.9-0.6-1.3-0.3c-0.5,0.3-0.6,0.8-0.3,1.3
		c0.9,1.8,2,3.6,3.2,5.2c0.3,0.4,0.9,0.6,1.3,0.3C450,381.4,450.2,380.8,449.9,380.3"/>
</g>
<path class="st8" d="M244.1,141.3c4.3-1.7,8.8-2.5,13.3-2.5c2.2,0,4.3,0.5,6.5,0.7c2.2,0,4.3,0.5,6.9,0.5l0.2-0.4
	c-1.8-1.9-4-3.2-6.4-3.7c-2.5-0.7-5-0.5-7.4-0.1c-2.6,0.4-4.7,1-7.1,1.8c-2.3,1-4.5,1.9-6.4,3.2L244.1,141.3z"/>
<path class="st8" d="M262.3,155.6c-2,0.2-3.6-2.1-3.8-5.1c-0.2-3,1.2-5.5,3-5.7c2-0.2,3.6,2.1,3.8,5.1
	C265.5,152.9,264.3,155.4,262.3,155.6z"/>
<path class="st8" d="M299.2,155.6c-2,0.1-3.6-2.2-3.8-5.2s1.2-5.5,3-5.7c2-0.1,3.6,2.2,3.8,5.2C302.4,152.9,301.2,155.4,299.2,155.6
	z"/>
<path class="st8" d="M305.1,140.1c-0.8-0.8-1.8-1.5-2.9-2s-2-0.8-3.2-1.2c-1-0.3-2.2-0.7-3.4-0.5c-1,0.2-2.2,0.5-3.2,1.5v0.3
	c0.7,0.5,1.2,0.7,1.7,0.8c0.5,0.3,1,0.3,1.5,0.5c1,0.2,2-0.2,3-0.2c1,0,2,0,3,0.2c1,0,2,0.3,3,0.7L305.1,140.1z"/>
<path class="st9" d="M287.7,166.3c-3.2,1.5-6.7,2-10.1,0.5c0.2,1.4,0.9,2.6,1.9,3.5c1.2,0.9,3.5,1.1,5.4,0.6
	C287.1,170.2,288.9,168.6,287.7,166.3z"/>
<g>
	<path class="st9" d="M269.2,194.9c3.1,2.9,10.4,3.8,14,3.4c3.6-0.4,5.6-11.6,4.7-11.5c-1.1,0.1-15.9-0.7-20.4-3.1
		C267.4,183.7,266.2,191.9,269.2,194.9z"/>
	<path class="st10" d="M285.5,191.3c0.1,0,0-0.1,0.1-0.1c0.5-1.5,1-3,1.2-4.5c-3,0-12.9-0.8-17.8-2.5c-0.1,0.8-0.4,1.6-0.7,2.6
		C272.3,190.4,279,192.4,285.5,191.3z"/>
</g>
<g>
	<path class="st5" d="M75,116.1c0,0.3,0,0.4-0.1,0.5c0,0-0.2,0.1-0.5,0.1c-0.7,0.1-1.8,0.2-3.1,0.3c-1.9,0.1-3,0.2-3.3,0.1
		c-0.3,0-0.5-0.2-0.5-0.5c-0.1-0.9-0.1-2.4-0.2-4.3c0-1.9-0.1-3.3-0.2-4.3c0-0.5-0.2-0.7-0.5-0.8c-0.4-0.1-1.9,0-4.4,0.2
		c-2.5,0.2-4,0.3-4.4,0.4c-0.3,0.1-0.4,0.4-0.3,0.8c0.1,0.9,0.2,2.3,0.4,4.2c0.2,1.9,0.3,3.3,0.4,4.2c0,0.4-0.1,0.6-0.4,0.7
		c-0.4,0.1-1.5,0.2-3.4,0.3c-1.6,0.1-2.7,0.1-3.1,0.1c-0.4,0-0.5-0.2-0.6-0.5c-0.1-1.3-0.2-3.3-0.2-5.9c-0.1-2.6-0.1-4.6-0.2-5.9
		c-0.1-1.4-0.3-3.5-0.6-6.3c-0.3-2.8-0.5-4.9-0.6-6.3c0-0.3,0.1-0.4,0.4-0.4c0.4,0,0.9,0,1.7-0.1s1.3,0,1.7-0.1c0.4,0,1-0.1,1.7-0.2
		c0.8-0.1,1.4-0.1,1.7-0.2c0.2,0,0.3,0.1,0.3,0.3c0.1,0.9,0.1,2.3,0.1,4.1c0,1.8,0,3.2,0.1,4.1c0,0.4,0.2,0.7,0.4,0.7
		c0.3,0.1,1.9,0,4.6-0.2c2.6-0.2,4.1-0.3,4.5-0.5c0.3-0.1,0.4-0.3,0.4-0.8c-0.1-0.9-0.2-2.2-0.4-3.9c-0.2-1.7-0.3-3.1-0.4-3.9
		c0-0.4,0.1-0.6,0.4-0.6c0.3,0,0.9,0,1.6-0.1c0.7,0,1.3,0,1.6-0.1c0.3,0,0.9-0.1,1.6-0.2c0.7-0.1,1.2-0.1,1.6-0.2
		c0.3,0,0.5,0.1,0.6,0.4c0.1,1.4,0.2,3.5,0.3,6.3c0.1,2.8,0.2,4.9,0.3,6.3c0.1,1.3,0.3,3.3,0.6,5.9C74.7,112.9,74.9,114.8,75,116.1z
		"/>
	<path class="st5" d="M94.1,105.5c0.1,1.2-0.3,1.9-1,2.2c-0.1,0-1.4,0.3-3.7,0.7c-1.4,0.3-3.5,0.6-6.3,1c0.2,0.8,0.8,1.3,1.7,1.7
		c0.7,0.3,1.5,0.4,2.4,0.3c1.1-0.1,2.1-0.4,3.2-1.1c0.4-0.3,0.9-0.6,1.3-1c0.3,0.1,0.7,0.7,1.4,1.8c0.7,1.1,1,1.7,1,2
		c0,0.1-0.1,0.2-0.2,0.4c-1.4,1.7-3.6,2.6-6.7,2.8c-2.9,0.2-5.2-0.5-7.1-2c-1.9-1.6-3-3.8-3.2-6.6c-0.2-2.8,0.5-5.1,1.9-7
		c1.5-1.9,3.7-3,6.4-3.2c2.3-0.2,4.3,0.5,6.1,2.1C93,101.2,93.9,103.2,94.1,105.5z M87.7,104.8c-0.1-0.7-0.4-1.4-0.9-1.9
		c-0.6-0.5-1.2-0.8-2-0.7c-0.8,0.1-1.4,0.4-1.8,1.1c-0.4,0.6-0.6,1.3-0.5,2.1c0,0.3,0.2,0.5,0.5,0.5c0.9-0.1,2.3-0.3,4.1-0.7
		C87.5,105.1,87.7,105,87.7,104.8z"/>
	<path class="st5" d="M102.5,103.9c0.2,3.3,0.4,5.8,0.6,7.5c0,0.3,0.1,0.7,0.2,1.4c0.1,0.6,0.1,1.1,0.2,1.4c0,0.3-0.1,0.4-0.4,0.5
		c-0.5,0.1-1.5,0.2-2.9,0.3c-1.4,0.1-2.4,0.1-2.8,0c-0.3,0-0.4-0.2-0.5-0.5c0,0,0-0.3-0.1-0.8c-0.1-1.1-0.2-2.7-0.3-4.8
		c-0.1-2.1-0.2-3.7-0.3-4.8c-0.4-5-0.5-7.3-0.5-6.9c-0.2-2.7-0.5-4.9-0.9-6.8c0-0.1-0.1-0.2-0.1-0.3c0-0.3,0.1-0.4,0.4-0.4l6.4-0.4
		c0.3,0,0.4,0.1,0.4,0.3l0,0.3C102.1,95.3,102.3,99.9,102.5,103.9z"/>
	<path class="st5" d="M112.4,103.2c0.2,3.3,0.4,5.8,0.6,7.5c0,0.3,0.1,0.8,0.2,1.4c0.1,0.6,0.1,1.1,0.2,1.4c0,0.3-0.1,0.4-0.4,0.5
		c-0.5,0.1-1.5,0.3-2.9,0.3c-1.4,0.1-2.4,0.1-2.8,0c-0.3,0-0.4-0.2-0.5-0.5c0,0,0-0.3-0.1-0.8c-0.1-1.1-0.2-2.7-0.3-4.8
		s-0.2-3.7-0.3-4.8c-0.4-5-0.5-7.3-0.5-6.9c-0.2-2.7-0.5-4.9-0.9-6.8c0-0.1-0.1-0.2-0.1-0.3c0-0.3,0.1-0.4,0.4-0.4l6.4-0.4
		c0.3,0,0.4,0.1,0.4,0.3l0,0.3C112,94.6,112.1,99.2,112.4,103.2z"/>
	<path class="st5" d="M133.2,103.7c0.2,2.7-0.5,5-2.1,6.8c-1.6,1.8-3.7,2.8-6.4,3c-2.6,0.2-4.9-0.5-6.7-2.1c-1.8-1.6-2.8-3.7-3-6.3
		c-0.2-2.8,0.5-5.1,2-7c1.5-1.9,3.7-2.9,6.5-3.1c2.7-0.2,5,0.5,6.8,2.1C132,98.8,133,101,133.2,103.7z M127.3,104.1
		c-0.1-0.9-0.4-1.8-1.1-2.5c-0.6-0.7-1.4-1-2.4-0.9c-0.9,0.1-1.7,0.5-2.3,1.3c-0.5,0.7-0.8,1.6-0.7,2.5c0.1,1,0.4,1.8,1,2.4
		c0.7,0.7,1.5,1,2.4,1c0.9-0.1,1.7-0.5,2.2-1.3C127.1,106,127.3,105.1,127.3,104.1z"/>
	<path class="st5" d="M141.7,91c0.2,2.2,0.1,4.3-0.2,6.2c-0.3,2-0.7,4-1,6c-0.1,0.5-0.5,0.7-1.4,0.8c-1,0.1-1.5-0.1-1.7-0.5
		c-1.4-3.8-2.1-5.9-2.2-6.5c0-0.5-0.1-1.2-0.1-2.2c0-1,0-1.7-0.1-2.2c0-0.5-0.1-1.4-0.2-2.4s-0.2-1.9-0.2-2.4c0-0.4,0.1-0.7,0.3-0.7
		c0.3,0,0.8,0,1.5,0c0.7,0,1.2,0,1.5,0c0.3,0,0.8-0.1,1.5-0.2c0.7-0.1,1.2-0.2,1.5-0.2C141.3,86.6,141.5,88.1,141.7,91z M143,108.9
		c0.1,1-0.2,1.9-0.8,2.6c-0.6,0.7-1.4,1.1-2.4,1.2c-1,0.1-1.9-0.2-2.5-0.8s-1-1.4-1.1-2.5c-0.1-1,0.2-1.9,0.8-2.6
		c0.6-0.7,1.4-1.1,2.4-1.1c1-0.1,1.8,0.2,2.5,0.8C142.5,107,142.9,107.9,143,108.9z"/>
</g>
</svg>
