<?xml version="1.0" encoding="utf-8"?>
<!-- Generator: Adobe Illustrator 22.0.0, SVG Export Plug-In . SVG Version: 6.00 Build 0)  -->
<svg version="1.1" id="Layer_1" xmlns="http://www.w3.org/2000/svg" xmlns:xlink="http://www.w3.org/1999/xlink" x="0px" y="0px"
	 viewBox="0 0 392.1 260.5" style="enable-background:new 0 0 392.1 260.5;" xml:space="preserve">
<style type="text/css">
	.st0{fill:#67ABE6;}
	.st1{display:none;opacity:0.4;}
	.st2{display:inline;}
	.st3{display:none;fill:#B8CAE1;}
	.st4{display:none;}
	.st5{fill:#C8DDF5;}
	.st6{fill:#ABBDD2;}
	.st7{fill:#D5E9FF;}
	.st8{fill:#F1C27D;}
	.st9{fill:#E0AC69;}
	.st10{fill:#FFFFFF;}
	.st11{fill:#D3D3D3;}
	.st12{fill:#002A8A;}
	.st13{fill:#10005F;}
	.st14{fill:#C68642;}
	.st15{fill:#333333;}
	.st16{fill:#222222;}
	.st17{fill:#F1F1F1;}
	.st18{fill:#D25E5A;}
	.st19{fill:#FFA6A4;}
	.st20{fill:#FF7571;}
	.st21{fill:#524786;}
	.st22{fill:#38295C;}
	.st23{fill:#E7E7E7;}
	.st24{display:inline;fill:#A04F58;}
	.st25{display:inline;fill:#713349;}
</style>
<g id="Character_2">
	<g>
		<g>
			<g>
				<g>
					<path class="st0" d="M137.7,233.5V91.4c0-21.4,17.4-38.8,38.8-38.8h174.6c21.4,0,38.8,17.4,38.8,38.8v142.1
						c0,21.4-17.4,38.8-38.8,38.8H176.5C155.1,272.3,137.7,254.9,137.7,233.5z"/>
				</g>
			</g>
			<g class="st1">
				<g class="st2">
					<path d="M137.7,233.5V91.4c0-21.4,17.4-38.8,38.8-38.8h174.6c21.4,0,38.8,17.4,38.8,38.8v142.1c0,21.4-17.4,38.8-38.8,38.8
						H176.5C155.1,272.3,137.7,254.9,137.7,233.5z"/>
				</g>
			</g>
			<g>
				<g>
					<g>
						<polygon class="st0" points="138.7,167.8 100,129.2 137.8,129.2 						"/>
					</g>
				</g>
				<g class="st1">
					<g class="st2">
						<polygon points="138.7,167.8 100,129.2 137.8,129.2 						"/>
					</g>
				</g>
			</g>
		</g>
	</g>
</g>
<g>
	<path class="st3" d="M-126.2,215c26,39.5,70.6,62.7,117.9,62.7H384c78.8,0,123.1-92.2,71.9-144.1c-51.1-51.9-6-96.2-84.8-137.9
		c-76.4-40.3-102.5,45.6-172.9-10.6C127.7-71.1,25.2-65.8,2.7-8.5s-17.2,77.5-65,90.2s-94.4,84.9-65.8,130.5
		C-127.5,213.1-126.9,214.1-126.2,215z"/>
	<g class="st4">
		<g class="st2">
			<path class="st5" d="M-108.8,228c41.3,3.5,69.2,81,172.5,34.4c0,0-11.3-33.8-62.2-54.9C-49.3,186.4-108.8,228-108.8,228z"/>
			<path class="st6" d="M49.6,259.6c-10.8-5.6-22-10.4-33.4-14.6c-2.8-1.1-5.7-2.1-8.6-3c-2.9-1-5.8-1.9-8.7-2.8
				c-2.9-0.9-5.9-1.7-8.8-2.5c-1.5-0.4-2.9-0.8-4.4-1.2l-4.4-1.1l-4.5-1l-4.5-0.9l-4.5-0.9c-1.5-0.3-3-0.5-4.5-0.7
				c-3-0.4-6-1-9.1-1.2c-3-0.3-6.1-0.8-9.1-0.9c-12.2-0.9-24.5-0.7-36.5,1.3c12.2-0.3,24.2,0.4,36.2,1.9l2.2,0.3l2.2,0.3l4.5,0.7
				c3,0.4,5.9,1,8.9,1.5c1.5,0.3,3,0.5,4.4,0.8l4.4,0.9l4.4,0.9l4.4,1.1l4.4,1c1.5,0.4,2.9,0.7,4.4,1.1l4.4,1.1
				c1.5,0.4,2.9,0.8,4.4,1.2c2.9,0.8,5.8,1.6,8.7,2.5s5.8,1.7,8.7,2.6C26.7,251.6,38.1,255.6,49.6,259.6z"/>
		</g>
		<g class="st2">
			<path class="st7" d="M-113.9,99.2C-63.5,135.2-86.8,256,81.5,275c0,0,11.2-52.1-38-118C-5.7,91.2-113.9,99.2-113.9,99.2z"/>
			<path class="st5" d="M70.3,260.5c-7.3-15.9-16.4-31-26.6-45.3s-21.6-27.8-34-40.3s-25.9-24-40.5-33.9
				c-14.5-9.9-30.2-18.5-46.9-23.8c15.5,8.1,29.9,17.8,43.5,28.4c13.6,10.7,26.5,22.2,38.6,34.5c12.2,12.2,23.7,25.2,34.6,38.6
				C50.1,232.1,60.3,246.1,70.3,260.5z"/>
		</g>
		<g class="st2">
			<path class="st5" d="M430,220.2c-41,6.4-63.3,85.6-169.6,46.5c0,0,8.9-34.5,58.1-59.1S430,220.2,430,220.2z"/>
			<path class="st6" d="M274.1,259.9c11.2-4.8,22.3-9.6,33.5-14c2.8-1.1,5.6-2.1,8.5-3.2c2.8-1.1,5.7-2.1,8.5-3.1
				c1.4-0.5,2.8-1,4.3-1.5l4.3-1.4c1.4-0.5,2.9-1,4.3-1.4l4.3-1.3l4.3-1.4l4.3-1.2l4.3-1.2c1.4-0.4,2.9-0.7,4.4-1.1
				c2.9-0.7,5.8-1.5,8.8-2.1l4.4-1l2.2-0.5l2.2-0.4c11.8-2.3,23.8-3.9,35.9-4.4c-12.1-1.2-24.4-0.5-36.5,1.2c-3,0.3-6,1-9,1.5
				s-6,1.2-9,1.9c-1.5,0.3-3,0.7-4.5,1.1l-4.4,1.2l-4.4,1.2l-4.4,1.3l-4.4,1.4c-1.4,0.5-2.9,1-4.3,1.5c-2.9,1-5.8,2-8.6,3.1
				c-2.8,1.1-5.7,2.2-8.5,3.4s-5.6,2.3-8.4,3.6C295.2,248,284.4,253.6,274.1,259.9z"/>
		</g>
		<g class="st2">
			<path class="st7" d="M402.8,93.6c-45.4,37.6-15.2,150.5-173.5,179.8c0,0-14.1-48.7,28.1-114.4C299.7,93.3,402.8,93.6,402.8,93.6z
				"/>
			<path class="st5" d="M238.9,258.9c8.6-14.3,17.4-28.2,26.8-41.7c9.5-13.5,19.5-26.5,30.3-38.9c10.7-12.4,22.1-24.2,34.3-35.3
				c12.2-11,25.2-21.1,39.3-30c-15.5,6.1-29.8,15.2-43,25.6c-13.2,10.4-25.2,22.2-36.1,34.9c-10.9,12.7-20.8,26.3-29.5,40.6
				C252.3,228.4,244.8,243.3,238.9,258.9z"/>
		</g>
	</g>
	<g>
		<g>
			<path class="st8" d="M196.7,193.9c-5.7,6.7-10.8,17.9-14,19.7s-8.6,2.4-13.7,18.8c-5.1,16.4,20.6,14.2,20.6,14.2
				s11-6.3,15.4-21.6l11-9.8L196.7,193.9z"/>
			<path class="st9" d="M176.8,244.7c0,0,8.3-2.7,15.4-10.2c7.1-7.5,8-20.8,8-20.8l3.4,6.3l6.8-7.3l3.3-0.3l2.4,2.7l-11,9.8
				c-4.4,15.3-15.4,21.6-15.4,21.6s-7.1,0.6-13.1-1.2C176.7,245,176.8,244.7,176.8,244.7z"/>
			<path class="st10" d="M235.2,135.1c-7.9,5.8-12.6,9.9-16.5,17.8c-3.9,7.8-28.5,36-30,38.5c-1.6,2.5,13.8,29.1,26.1,35.7
				c0,0,18.6-21.4,29.3-29.5s7.1-36.8,2.1-46.5C241.2,141.4,235.2,135.1,235.2,135.1z"/>
			<path class="st11" d="M234.9,187v-16c0,0,2.1-0.8,3.7,4.6c0.7,2.2,0.6,4.4,0.3,6.4l12-9c0.5,10.1-1.1,20.3-6.8,24.6
				c-10.7,8.1-29.3,29.5-29.3,29.5c-3.2-1.7-6.5-4.7-9.8-8.3C212.6,211.2,226.9,196.7,234.9,187z"/>
			<path class="st8" d="M158.6,240.2c-2,0.6-3.6,1.6-3.6,4.2c0,2.6,0.4,6.7,1.4,8.3s6,2.6,6,2.6s-0.3-10.6-1.4-12.6
				C160,240.7,158.6,240.2,158.6,240.2z"/>
			<path class="st9" d="M156.4,252.7c-0.3-0.4-0.5-1.1-0.7-1.9c1.1,1.1,1.5,1.1,2.8,1.2l3.8,1.2c0.1,1.2,0.1,2,0.1,2
				S157.4,254.3,156.4,252.7z"/>
			<path class="st8" d="M163.5,236.3c-2.5,0.3-5,2.1-5,4.7s-0.9,9.8,0,10.9c0.9,1.2,5.2,4.4,6.7,4.7c1.5,0.3,4.1-0.2,3.7-1
				S163.5,236.3,163.5,236.3z"/>
			<path class="st9" d="M158.1,250c1.9,2.1,6.7,1.9,6.7,1.9s2.1,2.3,2.4,3c0.2,0.4,1,1,1.1,1.5c-0.8,0.3-2.2,0.4-3.1,0.2
				c-1.5-0.3-5.7-3.4-6.7-4.6L158.1,250L158.1,250z"/>
			<path class="st8" d="M172.8,232.1c-7.6,0.4-9.1,1.1-9.3,4.2c-0.3,3.1-0.1,12.2,0.9,14.5s1.5,4.4,2.8,5.6c1.2,1.2,3.1,1.2,3.1,1.2
				s4.2-6.1,4.4-11.3C174.7,241.2,172.8,232.1,172.8,232.1z"/>
			<path class="st9" d="M168.4,252.5c0.4-2.1,1.2-4.4,1.4-11.4c0-2.7,2.5,11.2,1.4,15c-0.5,0.9-0.9,1.5-0.9,1.5s-1.9,0-3.1-1.2
				c-1.2-1.2-1.8-3.3-2.8-5.6c-0.1-0.2-0.1-0.3-0.2-0.5C164.7,251.6,166.3,252.4,168.4,252.5z"/>
			<path class="st8" d="M189.5,247.7c-0.5,4.2-6,5.8-6.7,7.9c-0.6,2.1-0.2,4.1-1.2,4.6c-1.1,0.5-5.5-2-5.3-4.8c0,0-1.2,2.4-3.7,2.8
				c-2.6,0.4-3.2-1.4-2.8-4.3c0.4-2.8,0.4-4.3,0.3-7.7c-0.1-3.4-0.9-6.5,0.6-10.2s3.6-7,7.6-6.4c4.1,0.6,6.6,5.8,8.8,7.5
				C189.3,239,190,243,189.5,247.7z"/>
			<path class="st9" d="M176.3,255.4c0.2-5.4,0.5-9.8,0.5-10.7s-0.3-6.6,1.8-6.9c0.3-0.1,4.8,2.8,4.9,4.7c0.1,1.9,0,5.4-1.4,6.3
				C180.6,249.8,176.3,255.4,176.3,255.4z"/>
		</g>
		<g>
			<path class="st10" d="M361.3,146.7c-8.1-10.3-10.9-11.3-19.2-16.2c-8.4-4.9-40-17.2-46.6-18.8c-6.5-1.6-32.9,10.7-41.5,14.6
				s-19.6,7.8-21.5,11.6c-6.3,12.8,6.1,30.9,6.2,68.8c0,19.9,4.6,64.6,4.6,64.6s99.5,0.2,100.9-1.9s4.9-73.5,6.6-88.1
				C352.5,166.7,361.3,146.7,361.3,146.7z"/>
			<g>
				<path class="st11" d="M232.9,157.9c-0.7-2.4-1.2-4.8-1.6-7.3c-0.3-2.5-0.6-4.9-0.6-7.4c0.7,2.4,1.2,4.8,1.6,7.3
					C232.6,152.9,232.9,155.4,232.9,157.9z"/>
			</g>
			<path class="st11" d="M270.1,142.9c-3.8-1.4-13,1.1-14.6,1.6c-1.7,0.6,1-6.5,2-7.4c1-0.9,2.5-2.9,5.5-2c3,0.9,5.5,4.4,6,5.5
				C269.4,141.8,270.1,142.9,270.1,142.9z"/>
			<path class="st11" d="M302.1,148.9c-1.4-0.1-9.4-3.7-11.3-4.7c-1.9-0.9-10.6-1.3-16.4,0.3c0,0,11.2-7.6,17.7-7.5s9,2.4,9.5,4.5
				C302.2,143.6,302.1,148.9,302.1,148.9z"/>
			<path class="st11" d="M259.3,255.3c1.1-1,66,1,67.4-5.7c1.3-6.8,2.2-19.1,2.2-19.1c-7.8,4.2-19.2,2.4-19.2,2.4
				c7.6-2.5,18.5-14.9,19.1-18.6c1.6-11.3-4.4-42.3-4.4-42.3l4.4-8.9l5.2-2.9c0,0,9.8,4.9,18.1,13.8c-0.6,2.5-1,4.9-1.3,7.2
				c-1.6,13.8-4.8,78-6.4,87.1c-20.1,0.7-56.6,2.1-81,2.9c-11.8,0-20.1,0-20.1,0s-0.2-5.9-0.5-14.3
				C249.6,256.6,258.7,255.9,259.3,255.3z"/>
			<path class="st10" d="M272.5,144.8c7-0.8,18.3-6.9,22.7-4.8c4.4,2.1,5.5,7.4,6.4,8.4c0.9,0.9,4.8-3.7,4.8-14.9
				c0-11.2,0.3-22.7-7.9-24.3c-8.3-1.6-29.7,6.5-34,9.8s-6.1,6.6-7.3,9.7c-1.2,3.2-4.3,16-2.9,16.1c1.4,0.1,5.5-8.2,8.5-8.5
				C265.9,136.1,270.6,145.1,272.5,144.8z"/>
			<path class="st11" d="M268.5,134.8c-1.8-4.2-3.7-8-3.7-10.9c0.1-2.9,0.7-5,4-5.9s4.6,0.8,4.8,5.3S268.5,134.8,268.5,134.8z"/>
			<path class="st11" d="M294.1,126.9c6.8-6.2,7.6-13.1,7-14.5s-3.5-2.5-3.5-2.5s-1.1,4.5-0.5,5.6
				C297.8,116.6,294.1,126.9,294.1,126.9z"/>
			<g>
				<path class="st11" d="M283.3,141.8c1.7-0.7,3.4-1.3,5.2-1.8c1.8-0.4,3.6-0.8,5.5-0.7c0.9,0.1,1.9,0.3,2.8,0.9
					c0.7,0.7,1.3,1.3,1.9,2c1.2,1.4,2.1,3.1,2.9,4.7c0.2,0.4,0.4,0.8,0.6,0.8c0,0,0,0,0.1-0.1s0.3-0.2,0.4-0.4
					c0.5-0.7,0.9-1.5,1.3-2.3c0.8-1.6,1.3-3.3,1.6-5.1c0.3-1.8,0.5-3.6,0.7-5.4c0.2-1.8,0.2-3.6,0.2-5.4c0.4,3.6,0.4,7.3-0.1,10.9
					c-0.2,1.8-0.7,3.7-1.5,5.4c-0.4,0.8-0.8,1.7-1.4,2.4c-0.2,0.2-0.3,0.4-0.6,0.6c-0.1,0.1-0.3,0.2-0.5,0.2s-0.5,0-0.6-0.1
					c-0.4-0.2-0.5-0.4-0.7-0.7c-0.1-0.2-0.3-0.4-0.4-0.6c-0.8-1.7-1.6-3.2-2.7-4.6c-0.6-0.7-1.2-1.4-1.8-2c-0.6-0.5-1.4-0.7-2.3-0.8
					c-1.7-0.2-3.6,0-5.3,0.4C286.8,140.8,285,141.3,283.3,141.8z"/>
			</g>
			<g>
				<path class="st11" d="M267.2,139.5c-0.8-0.7-1.5-1.3-2.3-1.9c-0.4-0.3-0.8-0.5-1.2-0.7c-0.2-0.1-0.4-0.1-0.6-0.2
					c-0.1,0-0.2,0-0.2,0c-0.1,0-0.1,0-0.2,0.1c-1.7,1-3,2.5-4.1,4.1c-0.6,0.8-1.1,1.7-1.7,2.5c-0.3,0.4-0.7,0.8-1.1,1.1
					c-0.2,0.2-0.5,0.4-0.9,0.4c-0.2,0-0.5-0.1-0.7-0.2c-0.2-0.2-0.3-0.3-0.3-0.5c-0.2-0.6-0.1-1.1-0.1-1.7c0.1-0.5,0.2-1,0.3-1.5
					c0.2-1,0.5-2,0.9-2.9c-0.1,1-0.3,2-0.4,3c-0.1,0.5-0.1,1-0.1,1.5s0,1,0.2,1.3c0,0.1,0.1,0.1,0.1,0.1l0,0c0.1,0,0.3-0.1,0.4-0.3
					c0.3-0.3,0.6-0.7,0.9-1c0.6-0.8,1.1-1.6,1.7-2.5c0.6-0.8,1.2-1.7,2-2.4s1.6-1.3,2.5-1.8c0.1-0.1,0.3-0.1,0.5-0.2
					c0.2,0,0.3,0,0.5,0c0.3,0.1,0.6,0.2,0.8,0.3c0.5,0.3,0.9,0.6,1.3,0.9C265.9,137.9,266.6,138.7,267.2,139.5z"/>
			</g>
			<path class="st8" d="M267.6,109.3c0,2.8,0.1,5.5,0.4,8.3c0.7,6.7,0,15.6,0.5,17.3c0.6,1.8,4.1,8.4,4.1,8.4s6.3-2.9,8.9-6
				c2.6-3.1,6-3.3,10.6-7.9c4.6-4.6,7.7-12,6.7-18.1c-0.1-0.8-0.9-8.6-1.1-16.7s-8.7-14.2-16.8-14.2s-12.9,12-13.2,20.1
				C267.6,103.6,267.6,106.7,267.6,109.3z"/>
			<path class="st9" d="M297.7,94.4c0.2,8.1,1,15.9,1.1,16.7c0.3,1.9,0.2,3.9-0.2,5.9c-1.8,0.3-24.8,0.9-30.8-1.9
				c-0.1-2-0.2-3.9-0.2-5.9c0-2.5,0-5.6,0.1-9s1-7.6,2.7-11.2l19-6.7C294,84.9,297.6,89.3,297.7,94.4z"/>
		</g>
		<g>
			<path class="st12" d="M253.4,60.7c-12.3,0-16.8,9.4-16.8,16.5c0,6.3,2,16.5,16.8,16.5c7.4,0,12.4-7.4,12.4-16.5
				S260.8,60.7,253.4,60.7z"/>
			<path class="st13" d="M252.8,64.8c-9.3,0-12.7,7.1-12.7,12.4c0,4.8,1.5,12.4,12.7,12.4c5.6,0,9.4-5.6,9.4-12.4
				C262.2,70.3,258.4,64.8,252.8,64.8z"/>
			<path class="st8" d="M237.9,66.3c0.7,4.3,2.8,5.9,3.8,11.7c0.9,5.8-1.6,14.2,2.2,21.5s9.9,17,13.4,17.4s31.8-4.4,41.3-23.3
				c2.7-5.4,8.6-26.8,3.6-39.8s-13.1-25-31.9-25.3C251.4,28.1,234.1,43.5,237.9,66.3z"/>
			<path class="st14" d="M253.7,89.7c1,0,2.1-0.4,2.6-1c0.4-0.6,0.6-1.3,0.5-2c-1.5,1.2-3.3,1.4-5.1,1.1
				C251.4,89.1,252.5,89.7,253.7,89.7z"/>
			<path class="st15" d="M286.9,66.3c-0.7-4.5-3.7-7-3.7-7s-7.2-3-12.7-3.5c-5.6-0.5-11.3-2.2-11.3-2.2s1.8,4.5,4.7,6.4
				c0,0-13.3-0.7-17.5-4.6c0,0,0.8,3.2,1.6,5.4c0,0-6.5-0.7-8.5-3.2c0,0-1.6,5.7-1.6,8.8c0,0-7.8-10.7-5.8-19.2s4.7-11.8,4.7-11.8
				s-5.6,0.5-8.7,0c0,0,7.2-6.3,12.7-10.5c5.4-4.2,21.7-4.3,21.7-4.3s-1.3-4.3,0.2-11.2c0,0,7,10.2,14.3,13.3
				c7.3,3.1,6.4,2.9,14.2,4.8c7.8,2,15.2,7,18.4,11.2s6.5,8.5,8.5,9.2c0,0-4.9-0.7-7.3-2.7c0,0,4.1,9.2-1.3,21.1s-18.9,8.4-21.5,5.8
				C285.4,69.4,286.9,66.3,286.9,66.3z"/>
			<path class="st16" d="M288,72c-2.6-2.6-1-5.8-1-5.8c-0.4-2.7-1.7-4.7-2.6-5.9c2-11.9,1.2-24.2-2.3-35.7c2,0.8,3.2,1.2,6.2,1.9
				c3.6,5.4,6.3,11.5,8.2,17.7c2.4,7.9,3.5,16.4,1.3,24.3c-0.6,2-1.4,4-2.4,5.9C291.9,74.3,289,73.1,288,72z"/>
			<path class="st12" d="M291.7,61.9c0,0,0.9-29.7-14.7-39.2c0,0,12.1-1.4,19,10.7s6.4,22.4,6.3,28.2
				C302.1,67.4,291.7,61.9,291.7,61.9z"/>
			<path class="st12" d="M296.4,60.7c12.3,0,16.8,9.4,16.8,16.5c0,6.3-2,16.5-16.8,16.5c-7.4,0-12.4-7.4-12.4-16.5
				S289,60.7,296.4,60.7z"/>
			<path class="st13" d="M289.8,77.2c0-8.1,5.3-14.6,11.9-14.6s11.5,6.5,11.5,14.6s-5,14.6-11.5,14.6
				C295.1,91.8,289.8,85.3,289.8,77.2z"/>
			<ellipse class="st12" cx="303.3" cy="77.2" rx="8.1" ry="9.9"/>
			<g>
				<path class="st14" d="M265.4,93.7c-3.3,1.8-14.1,2.4-14.9,2.3c-0.7-0.1,0.8,8.1,3.4,8.4c2.6,0.3,7.9-0.4,10.2-2.5
					C266.3,99.7,265.4,93.7,265.4,93.7z"/>
				<path class="st10" d="M264.7,96c-0.2-0.7-0.4-1.3-0.5-1.9c-3.6,1.2-10.8,1.8-13,1.8c0.2,1.1,0.5,2.2,0.9,3.3
					c0.1,0,0,0.1,0.1,0.1C256.9,100.1,261.8,98.6,264.7,96z"/>
			</g>
			<path class="st16" d="M263.9,74c0-1.5,0.7-2.7,1.7-2.7c0.9,0,1.7,1.2,1.7,2.7s-0.7,2.7-1.7,2.7S263.9,75.5,263.9,74z"/>
			<path class="st16" d="M245,75.3c0-1.5,0.6-2.7,1.4-2.7c0.8,0,1.4,1.2,1.4,2.7s-0.6,2.7-1.4,2.7C245.7,78,245,76.8,245,75.3z"/>
			<path class="st16" d="M273.1,63.5c-1.1-0.6-2.3-1-3.6-1.4c-1.3-0.3-2.5-0.5-3.9-0.6c-1.3-0.1-2.7-0.1-4,0.4
				c-1.3,0.4-2.4,1.2-3.3,2.3l0.1,0.2c1.4-0.1,2.5-0.5,3.7-0.6c1.2-0.2,2.3-0.6,3.5-0.7c2.4-0.2,4.9,0,7.3,0.7L273.1,63.5z"/>
			<path class="st16" d="M240.2,67c0.6-0.2,1.2-0.4,1.8-0.4c0.6-0.1,1.2-0.1,1.8-0.1s1.2,0.2,1.8,0.1c0.3-0.1,0.6-0.1,0.9-0.3
				c0.3-0.1,0.6-0.2,1-0.5v-0.2c-0.6-0.6-1.3-0.8-1.9-0.9c-0.7-0.1-1.4,0.1-2,0.3c-0.7,0.2-1.3,0.4-1.9,0.7
				c-0.6,0.3-1.2,0.7-1.7,1.2L240.2,67z"/>
		</g>
		<g>
			<path class="st17" d="M259.3,261.7c0,0.4-0.6,1-2,1s-40.1,0-45.3,0s-6.4-2.1-4.9-4.7c1.6-2.6,8.2-8.4,24.5-12.4
				c16.4-4,25,5.4,27.6,9.6C261.3,258.4,259.3,261.7,259.3,261.7z"/>
			<path class="st11" d="M206.8,258.9c0.9,3,35.5,1.4,35.5,1.4s-3.5-4.7-7.4-4.9c-3.9-0.1-5.8,1.2-11,2.1c-5.2,0.9-1.3-2.1-1.3-2.1
				s-3.7-0.8-5.2-2c0,0,8.6-2.5,12.2-3.1c3.6-0.6,12.7-0.2,13.9,0c0.8,0.1,5-2.3,10.1-1.1c2.8,2.1,4.7,4.4,5.7,6c2,3.1,0,6.4,0,6.4
				c0,0.4-0.6,1-2,1s-40.1,0-45.3,0C207.4,262.8,205.9,261.1,206.8,258.9z"/>
			<path class="st8" d="M354.6,233.4c0,0-32.2,5-49.7,8.1c-16.5,3-30.8,4.2-34.9,3.5s-17.9-5.9-22.3-7.7c-4.4-1.8-13.3-2.9-17.9-1.4
				c-4.6,1.4-8.3,3-10.1,3s-1.5,3,1,3.6c2.4,0.6,4.6,0.5,4.6,0.5s-8.3,4.5-9.7,5c-1.5,0.4,0.3,3.1,2.3,3c0,0-1.8,1-1.1,2.1
				c0.6,1,5,1,5,1s-5.3,2.6-0.9,3.7c4.4,1,9.7-3.9,11.9-4.4c2.2-0.4,7.2-0.2,9.7,1.7c2.5,1.9,12.9,10.3,27.2,5.2
				c0,0,96.9,3.9,106.6,3.9s15.5-8.5,12.4-25s-9.1-28.7-9.1-28.7l-33.4,2.4L354.6,233.4z"/>
			<g>
				<path class="st14" d="M232.9,240.3c0.9-0.2,1.5-0.3,2-0.3C234.9,240,234,240.1,232.9,240.3z"/>
				<path class="st14" d="M225.3,242.9c0,0-2.2,0.1-4.6-0.5c-0.7-0.2-1.2-0.5-1.6-1c2.7,1.2,6,0.4,7.9,0c1.2-0.3,4-0.8,5.9-1.1
					C231,240.8,228.1,241.7,225.3,242.9z"/>
			</g>
			<g>
				<path class="st14" d="M225.7,246.8c0.2-0.1,0.4-0.2,0.5-0.2C226.2,246.6,226,246.7,225.7,246.8z"/>
				<path class="st14" d="M215.5,249.8c0,0,1,0.9,3,0c1.7-0.7,5.7-2.4,7.2-3c-1.8,0.8-6.6,3.5-7.9,4
					C216.9,250.9,216.1,250.4,215.5,249.8z"/>
			</g>
			<path class="st14" d="M220.5,253c1.5-0.4,4.6-2.3,6.5-3.2s4.3-1,4.3-1s-0.7,0.1-2.6,1c-1.9,0.9-7.1,4.2-7.1,4.2s-2.8,0-4.2-0.5
				C217.4,253.4,219.1,253.5,220.5,253z"/>
			<path class="st9" d="M248.1,255.2c2.7,1.7,10.8,3.9,15.7,3c4.8-0.9,5.9-5,5.9-5l1.3,4.4c0,0,67.2,1.9,80.9,1.3
				c13.5-0.6,34.6-0.9,37.3-9c-0.8,9.4-5.9,14.3-13.1,14.3c-9.7,0-106.6-3.9-106.6-3.9c-14.3,5-24.7-3.4-27.2-5.2
				c-2-1.5-5.9-2-8.3-1.8l0,0C237.7,251.8,245.3,253.5,248.1,255.2z"/>
			<path class="st9" d="M354.6,233.4c0,0,12.6-1.7,15.1-2l-1.9-7.8l-15.9,3.2L354.6,233.4z"/>
			<path class="st10" d="M388.2,211.5c0.5,1.2,0.2,2.6-0.8,3.5c-5.9,5.7-13.5,13.5-21.4,14.7c-8.6,1.3-23,1.8-23.8,0
				s-3.7-25.1-8.9-36.8c-5.2-11.8-8.6-17.8-9.9-24.5s10.4-22.7,15.7-24c5.2-1.3,17.2-2.1,22.2,2.4c5,4.4,8.6,21.4,14.4,34.2
				C380.3,191.2,386.1,206.1,388.2,211.5z"/>
			<g>
				<path class="st11" d="M355.9,144.1c-1.6-0.2-3.2-0.3-4.8-0.4c-1.6-0.1-3.2-0.1-4.8,0c-1.6,0.1-3.2,0.3-4.7,0.5
					c-0.8,0.1-1.6,0.3-2.3,0.5c-0.7,0.3-1.5,0.5-2.1,0.9c-0.7,0.3-1.3,0.8-2,1.2c-0.6,0.5-1.2,1-1.7,1.6c-1.1,1.1-2.1,2.3-3.1,3.6
					s-1.8,2.6-2.6,4c-0.8,1.4-1.6,2.8-2.3,4.2c1.1-3,2.6-5.9,4.4-8.6c0.9-1.3,1.9-2.6,3.1-3.8c0.5-0.6,1.2-1.1,1.8-1.7
					c0.7-0.5,1.3-1,2.1-1.4c0.7-0.4,1.5-0.7,2.3-0.9s1.6-0.4,2.4-0.5c1.6-0.2,3.2-0.4,4.9-0.4C349.5,143,352.8,143.3,355.9,144.1z"
					/>
			</g>
			<path class="st11" d="M381.7,216.3c0-4.2-8.9-42.4-16.6-63.7l0,0c3.3,7.3,6.4,18.9,10.6,28.3c4.6,10.3,10.5,25.2,12.5,30.6
				c0.5,1.2,0.2,2.6-0.8,3.5c-2.2,2.2-4.8,4.7-7.4,7C380.2,221.8,381.7,220.2,381.7,216.3z"/>
		</g>
	</g>
	<g class="st4">
		<g class="st2">
			<g>
				<path class="st18" d="M-39.3,171.6c-0.2,1.3,0.1,2.6,0.7,3.7c2.3,4.1,3.4,8.9,3.3,13.6c-0.1,3.1-0.7,6.3,0.1,9.3
					c1.5,5.2,6.9,8.4,8.7,13.5c1.6,4.5,0.1,10.2,3.3,13.7c0.8,0.9,2,1.5,3.1,1.1c0.6-0.2,1-0.7,1.4-1.1c3.7-4.2,7.7-9.3,6.5-14.8
					c-1.1-5.2-6.4-8.7-7.4-13.8c-0.8-4.2,1.3-9.1-1.1-12.7c-0.7-1-1.6-1.7-2.4-2.7c-2.9-3.7-1.8-9.6-5.1-12.9
					c-1.1-1.1-2.4-1.7-3.9-2C-35.5,165.6-38.9,168.1-39.3,171.6L-39.3,171.6z"/>
			</g>
			<g>
				<path class="st19" d="M-18.2,237.3c0.2-2.8,0.3-5.5,0.4-8.3c-0.1-2.8-0.3-5.5-0.5-8.3s-0.5-5.5-1-8.2s-1.1-5.5-2.3-8.1
					c-2-5.1-3.6-10.3-5.2-15.6l-2.4-7.9c-1-2.6-1.9-5.2-2.8-7.8c0.4,2.7,1,5.4,1.6,8.1l2.4,7.9c1.6,5.3,3.2,10.5,5.3,15.7
					c1.1,2.5,1.7,5.1,2.2,7.8s0.8,5.4,1,8.1c0.2,2.7,0.4,5.5,0.5,8.2L-18.2,237.3z"/>
				<path class="st19" d="M-32.8,181.4c0.5,0.7,1,1.2,1.7,1.7c0.3,0.2,0.7,0.4,1.1,0.5c0.4,0.2,0.7,0.4,1,0.7l0.1,0.1l0.1-0.2
					c0.3-0.4,0.6-0.8,0.8-1.2c0.2-0.4,0.5-0.8,0.7-1.2c0.4-0.9,0.7-1.8,0.9-2.8h-0.1c-0.7,0.7-1.2,1.5-1.7,2.4
					c-0.2,0.4-0.4,0.9-0.6,1.3c-0.2,0.4-0.3,0.9-0.4,1.4l0.2-0.1c-0.3-0.2-0.6-0.4-0.9-0.7s-0.5-0.6-0.8-0.8
					C-31.3,182-31.9,181.5-32.8,181.4L-32.8,181.4z"/>
				<path class="st19" d="M-32.1,190.8c0.5,0.4,1,0.8,1.5,1.2s1,0.7,1.6,1s1.2,0.5,1.7,0.8s1,0.7,1.5,1.1l0.2,0.1l0.2-0.2
					c0.8-1,1.4-2,2-3.1s1.1-2.2,1.5-3.4H-22c-0.8,0.9-1.5,2-2.2,3c-0.6,1.1-1.2,2.2-1.6,3.3l0.3-0.1c-0.6-0.3-1.1-0.5-1.7-0.9
					c-0.5-0.4-1-0.8-1.5-1.2s-1.1-0.7-1.6-1C-30.8,191.1-31.4,190.8-32.1,190.8L-32.1,190.8z"/>
				<path class="st19" d="M-28.8,203.2c0.5,0.5,1.1,0.9,1.7,1.3c0.6,0.4,1.2,0.6,1.9,0.8c0.7,0.2,1.3,0.5,1.9,0.9s1.1,0.9,1.6,1.2
					l0.4,0.3l0.3-0.5c0.5-0.7,0.9-1.4,1.2-2.2c0.3-0.8,0.6-1.5,0.8-2.4l-0.1-0.1c-0.6,0.6-1.1,1.3-1.6,1.9c-0.5,0.7-0.8,1.4-1.2,2.2
					l0.7-0.2c-0.6-0.3-1.3-0.5-2-0.8c-0.7-0.2-1.3-0.6-1.8-1c-0.5-0.5-1.1-0.8-1.8-1.1C-27.3,203.4-28,203.2-28.8,203.2L-28.8,203.2
					z"/>
			</g>
		</g>
		<g class="st2">
			<g>
				<path class="st20" d="M-13.8,237.8c2.2-0.4,10.2-2.9,9.7-5c-2.4-9.1-4.8-19.3,3.5-23.7c4-2.1,9.1-3.2,11.4-7.2
					c2.4-4.1,0.6-9.2-1.5-13.4s-4.7-8.7-3.8-13.3c1-4.8,5.5-8.4,6.2-13.3c1-6.6-5.5-12-11.7-14.6c-2.1-0.9-4.4-1.6-6.6-1.1
					c-1.6,0.4-3,1.4-4.1,2.6c-4.4,4.9-4.2,12.2-3.2,18.7s2.5,13.3,0.1,19.3c-1.7,4.3-5.4,8.4-4.4,12.9c0.4,1.8,1.5,3.4,2,5.2
					c1.2,4.9-2.9,9.3-4.7,13.9c-2.4,6-0.8,13.3,3.8,17.9C-16.3,237.6-15,238-13.8,237.8L-13.8,237.8z"/>
			</g>
			<g>
				<path class="st19" d="M-14.6,237.9c0.5-3.6,1-7.2,1.6-10.7c0.2-0.9,0.3-1.8,0.5-2.7c0.1-0.9,0.2-1.8,0.4-2.7
					c0.3-1.8,0.6-3.5,0.9-5.3c0.7-3.5,1.5-7,2.7-10.3c0.6-1.7,1.3-3.3,2.3-4.7c0.5-0.7,1-1.3,1.6-1.7c0.8-0.5,1.6-1.2,2.2-2
					c1.2-1.6,1.6-3.7,1.6-5.6c0-1.9-0.4-3.7-0.8-5.5c-0.8-3.6-1.9-7-2.5-10.5s-0.7-7,0.2-10.4c0.3-0.8,0.5-1.6,0.8-2.5
					c0.3-0.8,0.6-1.6,1-2.4c0.8-1.6,1.9-3,3-4.4c-1.4,1.1-2.7,2.4-3.8,3.9c-0.6,0.7-1.1,1.5-1.5,2.4c-0.5,0.8-0.8,1.7-1,2.6
					c-1,3.7-0.9,7.5-0.3,11.1s1.7,7.1,2.5,10.6c0.4,1.7,0.7,3.5,0.8,5.2c0,1.7-0.3,3.4-1.2,4.6c-0.5,0.6-1.1,1.2-1.8,1.6
					c-0.9,0.6-1.5,1.4-2.1,2.2c-1.1,1.6-1.8,3.3-2.4,5c-1.3,3.5-2.1,7-2.8,10.6c-0.3,1.8-0.6,3.6-0.9,5.4c-0.1,0.9-0.3,1.8-0.4,2.7
					c-0.1,0.9-0.1,1.8-0.2,2.7C-14.5,230.7-14.7,234.3-14.6,237.9z"/>
				<path class="st19" d="M-0.3,167.2c-0.6,0.2-1.1,0.6-1.6,1s-0.9,0.8-1.3,1.3c-0.3,0.5-0.6,1.1-1.1,1.5c-0.4,0.4-0.9,0.8-1.4,1.2
					h0.6c-0.2-0.5-0.5-0.9-0.7-1.3c-0.3-0.4-0.5-0.9-0.8-1.3c-0.3-0.4-0.6-0.8-0.9-1.2s-0.7-0.8-0.9-1.2h-0.1c0,0.6,0.1,1.1,0.3,1.6
					s0.4,1,0.7,1.4c0.2,0.5,0.5,0.9,0.8,1.3c0.3,0.4,0.6,0.8,1,1.2l0.4,0.4l0.2-0.4c0.3-0.5,0.6-1.1,1-1.5c0.4-0.5,0.9-0.8,1.4-1.2
					s0.9-0.8,1.3-1.3C-0.9,168.4-0.5,167.9-0.3,167.2L-0.3,167.2z"/>
				<path class="st19" d="M-8.1,180.9c0.3,0.6,0.6,1.2,1,1.7s0.8,1,1.2,1.5c0.5,0.4,1,0.8,1.5,1.2s0.9,0.9,1.3,1.4l0.1,0.2l0.2-0.1
					c0.7-0.5,1.2-1,1.7-1.5c0.5-0.6,1-1.1,1.5-1.7c0.5-0.6,0.9-1.2,1.3-1.8s0.8-1.3,1.2-1.8l-0.1-0.1c-0.7,0.3-1.3,0.9-1.8,1.4
					s-1,1.1-1.5,1.6c-0.5,0.6-0.9,1.2-1.3,1.8s-0.8,1.3-1.2,1.8h0.3c-0.5-0.4-0.9-0.9-1.3-1.4s-0.7-1.1-1.1-1.6s-0.9-0.9-1.3-1.4
					C-7,181.7-7.5,181.3-8.1,180.9L-8.1,180.9z"/>
				<path class="st19" d="M6.3,191.5c-0.7,0.8-1.4,1.5-2.1,2.2s-1.5,1.3-2.3,2s-1.6,1.2-2.6,1.5s-2,0.3-3,0.3l0.4,0.3
					c-0.2-0.8-0.4-1.6-0.7-2.4c-0.3-0.8-0.6-1.6-1-2.3s-0.9-1.5-1.5-2.1s-1.3-1.2-2.1-1.5l-0.1,0.1c0.6,0.6,1.1,1.2,1.5,1.9
					s0.8,1.4,1.1,2.1l1,2.2c0.3,0.7,0.6,1.5,0.9,2.3l0.2,0.4h0.3c1.1-0.2,2.1-0.5,3.1-0.9s2-0.7,2.9-1.2c1-0.5,1.8-1.2,2.5-2
					C5.5,193.5,6.1,192.6,6.3,191.5L6.3,191.5z"/>
				<path class="st19" d="M-13.2,199.6c-0.3,0.8-0.4,1.7-0.4,2.5c0,0.9,0.2,1.7,0.5,2.5s0.8,1.5,1.3,2.2l1.5,2l0.1,0.1l0.2-0.1
					c0.8-0.6,1.7-1,2.6-1.5s1.8-0.9,2.7-1.3c0.9-0.4,1.8-0.8,2.8-1.1c0.9-0.4,1.9-0.7,2.9-1.1v-0.1c-2.1,0-4.2,0.4-6.1,1.2
					c-1,0.4-1.9,1-2.7,1.5c-0.9,0.6-1.6,1.3-2.4,2h0.3c-0.6-0.6-1.1-1.2-1.4-2c-0.4-0.7-0.5-1.5-0.8-2.3c-0.5-1.5-0.8-3-0.9-4.7
					L-13.2,199.6z"/>
			</g>
		</g>
		<g class="st2">
			<g>
				<g>
					<path class="st21" d="M-28.5,261.1h23.1c2.1,0,4-1.8,4.3-4.4l3.6-28.4c0.4-3.1-1.6-5.9-4.3-5.9h-30.4c-2.7,0-4.7,2.8-4.3,5.9
						l3.6,28.4C-32.4,259.3-30.6,261.1-28.5,261.1z"/>
				</g>
			</g>
			<path class="st22" d="M-32.1,222.5h15.5c-2.7,0-4.7,2.8-4.3,5.9l3.6,28.4c0.3,2.5,2.1,4.4,4.3,4.4h-15.5c-2.1,0-4-1.8-4.3-4.4
				l-3.6-28.4C-36.8,225.3-34.8,222.5-32.1,222.5z"/>
		</g>
	</g>
	<g>
		<g>
			<path class="st11" d="M178.1,253.4H81.6c-1,0-1.8,0.8-1.8,1.8v4.3c0,1,0.8,1.8,1.8,1.8H178v-7.9H178.1z"/>
			<path class="st17" d="M202.9,258.7v1.7c0,0.4-0.3,0.7-0.7,0.7h-24.3c-0.8,0-1.4-0.6-1.4-1.4v-5.1c0-0.8,0.7-1.5,1.5-1.4l24.2,4.7
				C202.6,258.1,202.9,258.4,202.9,258.7z"/>
		</g>
		<g>
			<g>
				<path class="st17" d="M9.5,89.5h180.2c3.6,0,6.9,2.3,8.1,5.7l39.4,109.5c1.6,5.6-2.5,9.9-9.1,10.6c-1,0.1-5.9-2.1-13.5-5.6h-161
					c-3.6,0-6.9-2.3-8.1-5.7L9.9,105c-6-3.1-9.5-4.9-9.5-4.9S-1.8,89.5,9.5,89.5z"/>
				<path class="st23" d="M184.1,95.1H3.9c-2.6,0-4.3,2.5-3.5,4.9l39.4,109.5c1.2,3.4,4.5,5.7,8.1,5.7h180.2c2.6,0,4.3-2.5,3.5-4.9
					l-39.3-109.5C191,97.4,187.8,95.1,184.1,95.1z"/>
				<polygon class="st11" points="143.4,215.2 135.4,185.6 105.1,215.2 				"/>
				<path class="st17" d="M99.6,133.5c0.8,4.9,4,6.9,7.8,6.9s6.6-3.1,6-6.9c-0.7-3.7-4-6.9-7.8-6.9S98.9,129.8,99.6,133.5z"/>
				<g>
					<polygon class="st11" points="184.3,197 181.9,190.6 184.8,190.6 187.2,197 					"/>
					<polygon class="st11" points="178.1,197 175.8,190.6 178.7,190.6 181,197 					"/>
					<polygon class="st11" points="172,197 169.7,190.6 172.6,190.6 174.9,197 					"/>
					<polygon class="st11" points="165.8,197 163.5,190.6 166.4,190.6 168.8,197 					"/>
				</g>
				<g>
					<polygon class="st11" points="78.7,197 76.4,190.6 79.3,190.6 81.6,197 					"/>
					<polygon class="st11" points="72.6,197 70.3,190.6 73.2,190.6 75.5,197 					"/>
					<polygon class="st11" points="66.4,197 64.1,190.6 67,190.6 69.4,197 					"/>
					<polygon class="st11" points="60.3,197 58,190.6 60.9,190.6 63.2,197 					"/>
				</g>
			</g>
			<g>
				<path class="st23" d="M82.6,250.6c1.8-5.1,23.3-74.7,23.3-74.7h27.7l1.8,9.7c0,0-18.6,59.9-20.3,65c-0.1,0.4-0.3,0.8-0.4,1.2
					l0,0c-1.6,5,2.7,5,7.5,5s48.8,0,48.8,0v4.4h-48.8H89.7C79.9,261.1,80.8,255.7,82.6,250.6z"/>
				<path class="st17" d="M133.6,175.9c0,0-21.6,69.6-23.3,74.7c-1.8,5.1-2.7,10.6,7.1,10.6H84.9c-9.8,0-8.9-5.5-7.1-10.6
					s23.3-74.7,23.3-74.7H133.6z"/>
				<path class="st11" d="M126.8,175.9c-2.1-0.1-4.3-0.1-6.4-0.2c-2.1-0.1-4.3-0.1-6.4-0.1s-4.3-0.1-6.4-0.1h-6.4h-0.4l-0.1,0.3
					c-0.9,2.8-1.8,5.6-2.6,8.4l-2.6,8.4c-1.7,5.6-3.3,11.3-4.8,17c2-5.5,3.8-11.1,5.7-16.7l2.7-8.4c0.9-2.8,1.8-5.6,2.6-8.4
					l-0.5,0.3h6.4c2.1,0,4.3-0.1,6.4-0.1s4.3-0.1,6.4-0.1C122.5,176,124.7,176,126.8,175.9z"/>
			</g>
		</g>
	</g>
	<g class="st4">
		<path class="st24" d="M-61.8,278.2h477.3c4.7,0,8.5-3.8,8.5-8.5l0,0c0-4.7-3.8-8.5-8.5-8.5H-61.8c-4.7,0-8.5,3.8-8.5,8.5l0,0
			C-70.3,274.4-66.5,278.2-61.8,278.2z"/>
		<path class="st25" d="M-61.8,278.2h477.3c4.7,0,8.5-3.8,8.5-8.5l0,0H-70.3l0,0C-70.3,274.4-66.5,278.2-61.8,278.2z"/>
	</g>
</g>
</svg>
