<?xml version="1.0" encoding="utf-8"?>
<!-- Generator: Adobe Illustrator 22.0.0, SVG Export Plug-In . SVG Version: 6.00 Build 0)  -->
<svg version="1.1" id="Layer_1" xmlns="http://www.w3.org/2000/svg" xmlns:xlink="http://www.w3.org/1999/xlink" x="0px" y="0px"
	 viewBox="0 0 5000 4946" style="enable-background:new 0 0 5000 4946;" xml:space="preserve">
<style type="text/css">
	.st0{display:none;clip-path:url(#SVGID_2_);fill:#FFFFFF;}
	.st1{clip-path:url(#SVGID_2_);}
	.st2{opacity:0.5;fill:#297770;}
	.st3{fill:#F1C27D;}
	.st4{fill:none;stroke:#333333;stroke-width:10;stroke-miterlimit:10;}
	.st5{fill:#839E7A;}
	.st6{fill:#F2F2F2;}
	.st7{fill:#E0AC69;}
	.st8{fill:#4D4D4D;}
	.st9{display:none;}
	.st10{display:inline;fill:#4D4D4D;}
	.st11{display:inline;}
	.st12{display:inline;fill:#D19B6F;}
	.st13{fill:#333333;}
	.st14{fill:#222222;}
	.st15{fill:#C68642;}
	.st16{fill:#FFFFFF;}
</style>
<g>
	<defs>
		<rect id="SVGID_1_" x="50" y="47" transform="matrix(-1 -4.489710e-11 4.489710e-11 -1 5000 4994)" width="4900" height="4900"/>
	</defs>
	<clipPath id="SVGID_2_">
		<use xlink:href="#SVGID_1_"  style="overflow:visible;"/>
	</clipPath>
	<rect x="50" y="47" transform="matrix(-1 -4.489710e-11 4.489710e-11 -1 5000 4994)" class="st0" width="4900" height="4900"/>
	<g class="st1">
		<path class="st2" d="M1176.9,371.1c0,0,2265-530.5,3201.4,413.2c946.5,781.4-511.9,799.2-484.5,1183s1210.3,1730.2,438.9,2421.6
			S2677.5,3619.7,2034.3,4151s-1641,1154.7-1723.2,416.5c-82.3-738.1,394.2-2163.2,989.1-2388.8s-279.4-496.2-361.7-1036.1
			S950.6,470.6,1176.9,371.1z"/>
		<g>
			<path class="st3" d="M2018.3,1207.2c0,0-4-111.9,118.6-77.4c0,0,79.7-1.7,89.1,236.8l35.5-46.9c0,0-2-281.3,46.2-365.7
				c0,0-1.3,34.1-8,48.9c1.4-1.8,46.3-60.6,56.9-85.7l-5.4,41.5l50.2-107.8l-10.7,56.3l46.2-88.4l-0.7,42.9l54.3-79.7
				c0,0,2,32.8-14.1,59.6c1.2-1.3,78.8-80.4,85.5-123.3l-10.5,75l72.3-128.6l-14.7,85.7l71-99.1l-12.1,75l61.6-57.6
				c0,0-2.7,36.2-26.8,75c1.1-0.7,72.4-47.1,85.7-77.7c0,0,10.7,37.5-25.4,87c1.4-1.3,47.3-43.6,73.7-95.1l2.7,65.6l53.6-69.7
				c0,0-5.4,49.6-37.5,93.8c0,0,73.7-13.4,95.1-87.1c0,0,100.5,56.3,120.6,104.5l-30.1-85.4l78.4,106.5l-24.1-93.4l95.5,152.7
				l-43.2-137.7l87.1,181.2l-13.4-132.6c0,0,58.9,105.2,48.2,190.9c0,0,29.5-54.9,30.8-77.7l-8.7,129.9l30.8-61l-13.1,123.9
				l42.2-52.2c0,0-33.8,426-33.8,485c0,0,26.8-103.2,65-139.3c0,0,118.6-40.2,78.4,130.6c-40.2,170.8-150.7,313.5-225.1,295.4
				c0,0-45.5,152.7-165.8,248.9c0,0-30.8,103-42,262.8c-5.4,76.6-6.3,166.3,2.8,263.9c0,0,54.9,17.4,29.5,87.1
				c-7.8,21.5-20.4,46.4-40.8,70.6c0,0-0.1,0.1-0.2,0.3c-45.9,54.4-131.5,105.4-292.5,107.3c-233.1,2.7-271.9-5.4-271.9-5.4
				s20.1-178.2-9.4-187.5c-29.5-9.4-85.7,8-115.2-9.4c-29.5-17.4-185.5-122.2-235.8-248.8c0,0,67.3-45.2,86.4-127.6
				c1.9-8.1,3.8-20.4,5.8-36.1c18.1-143.2,38.4-565.9,28.4-615.4C2162.3,1599.7,2064.8,1560.2,2018.3,1207.2z"/>
			<line class="st4" x1="2215.3" y1="1592.7" x2="2215.3" y2="1592.7"/>
			<path class="st5" d="M583.5,4957h766.3h57.6h3007.5c18.8-298.7-138-1008.8-138-1008.8c36.2-405.9-109.9-635-150-706
				c-40.2-71-207.6-217-293.4-288s-589.4-293-589.4-293s-8.4-109.5-6.7-148c1.7-38.5-16.1-60-16.1-60
				c-52.2-107.2-193.1-159.4-193.1-159.4c-5.4,76.6-6.3,166.3,2.8,263.9c0,0,54.9,17.4,29.5,87.1c-7.8,21.5-20.4,46.4-40.8,70.6
				c0,0-0.1,0.1-0.2,0.3c-3.3,4.1-42.3,53.1-33.6,101.3c9,50.2-41.2,45.2-112.5,112.5c-71.3,67.3-256.2,219-234.1,588.8
				c0,0-174.8-220.1-251.2-401.4c-76.4-181.3,67-299.2,67-299.2s20.1-178.2-9.4-187.5c-29.5-9.4-85.7,8-115.2-9.4
				c-29.5-17.4-185.5-122.2-235.8-248.8c0,0,67.3-45.2,86.4-127.6c1.9-8.1,3.8-20.4,5.8-36.1c-31-36.1-115-5.4-141.8,30.7
				c-26.8,36.2-89.8,285-89.8,285c-105.8,23.8-582.1,232.7-807.1,367.4c-225.1,134.6-278,341.6-374.4,665.8
				C677.3,3881.2,583.5,4957,583.5,4957z"/>
			<path class="st6" d="M2388,3116.7c76.4,181.3,251.2,401.4,251.2,401.4c-22.1-369.7,162.8-521.5,234.1-588.8
				c71.3-67.3,121.6-62.3,112.5-112.5c-8.6-48.1,30.3-97.2,33.6-101.3c-45.9,54.4-131.5,105.4-292.5,107.3
				c-233.1,2.7-271.9-5.4-271.9-5.4S2311.7,2935.4,2388,3116.7z"/>
			<g>
				<path class="st7" d="M2418.8,2166.4c10.4,15.4,18.7,31.9,26.4,48.5c7.6,16.7,14.5,33.6,20.6,50.8l4.5,12.9l4.2,13
					c2.7,8.7,5.4,17.4,7.8,26.3l1.8,6.6l1.7,6.6l1.7,6.6l0.9,3.3l0.8,3.3l3.2,13.3l2.9,13.4c3.9,17.9,7.3,35.8,10.3,53.9l2.3,13.6
					c0.6,4.5,1.3,9.1,2,13.6c0.7,4.5,1.4,9.1,2,13.6l1.9,13.7c1.3,9.1,2.2,18.3,3.4,27.4l3.1,27.5c0.9,9.2,1.8,18.4,2.8,27.6
					c0.8,9.2,1.8,18.5,2.9,27.7c4.5-37,5.3-74.4,3.5-111.7l-0.8-14c-0.2-4.7-0.7-9.3-1.1-14c-0.4-4.7-0.8-9.3-1.3-14l-1.7-13.9
					c-0.5-4.6-1.2-9.3-2-13.9l-2.2-13.9c-0.8-4.6-1.7-9.2-2.6-13.8l-1.3-6.9c-0.5-2.3-1-4.6-1.5-6.9l-3.1-13.7l-3.5-13.6l-0.9-3.4
					l-1-3.4l-2-6.8l-2-6.8c-0.7-2.2-1.4-4.5-2.2-6.7c-2.8-8.9-6-17.8-9.3-26.6c-1.7-4.4-3.4-8.8-5.2-13.1l-5.6-12.9
					c-7.7-17.1-16.5-33.8-26.5-49.7c-5.1-7.9-10.4-15.6-16.2-23C2431.9,2179.8,2425.8,2172.7,2418.8,2166.4z"/>
			</g>
			<g>
				<g>
					<path class="st8" d="M3163.7,2416.9c-10.2,25.5-19.7,50.8-29.3,76c-4.8,12.6-9.6,25.2-14.6,37.7c-2.5,6.2-4.9,12.5-7.5,18.7
						c-2.5,6.2-5.1,12.4-7.6,18.6c-2.6,6.2-5.2,12.3-7.9,18.4c-2.6,6.2-5.5,12.2-8.2,18.3c-5.6,12.1-11.5,24.1-17.7,35.9
						c-1.6,2.9-3.2,5.9-4.7,8.8l-5,8.7c-1.6,3-3.4,5.7-5.2,8.6l-2.6,4.3l-2.8,4.2c-7.3,11.2-15.3,22-24.4,32.3
						c2.9-1.8,5.8-3.7,8.7-5.6c2.8-2,5.5-4.2,8.2-6.3c5.3-4.5,10.4-9.2,15.2-14.2l3.6-3.8l3.4-3.9c1.1-1.3,2.3-2.6,3.4-4
						c1.1-1.3,2.2-2.7,3.3-4c2.1-2.7,4.3-5.5,6.3-8.3c2-2.8,4-5.6,6-8.5c1-1.4,1.9-2.9,2.9-4.3l2.8-4.4l2.8-4.4l2.6-4.5
						c1.7-3,3.6-5.9,5.2-9l4.9-9.1c1.6-3,3.1-6.2,4.7-9.2c1.6-3.1,3-6.2,4.5-9.3c2.9-6.2,5.6-12.6,8.4-18.9
						c2.6-6.4,5.2-12.7,7.6-19.2c1.2-3.2,2.4-6.4,3.5-9.7c1.1-3.2,2.3-6.5,3.4-9.7l3.2-9.8c1.1-3.3,2-6.6,3-9.8
						c2-6.6,3.8-13.2,5.5-19.8c3.4-13.3,6.5-26.6,8.9-40.1c1.2-6.7,2.3-13.5,3.3-20.3C3162.4,2430.6,3163.2,2423.8,3163.7,2416.9z"
						/>
				</g>
				<g>
					<path class="st8" d="M3075.6,2647.8c2.3-1,4.7-1.9,7.1-2.7c2.4-0.8,4.8-1.5,7.3-2c4.9-1.1,9.9-1.7,14.8-1.5
						c4.9,0.2,9.7,1.1,14,3.1c4.2,2.1,7.8,5.2,10.5,9c2.7,3.8,4.6,8.2,5.9,12.8l0.9,3.5c0.3,1.2,0.4,2.4,0.7,3.6
						c0.5,2.4,0.6,4.8,0.9,7.2c0.2,2.4,0.3,4.9,0.4,7.3c0,2.5,0,4.9,0,7.4c-0.1,5-0.4,10-0.7,15c-1.3,20-3.6,40.1-5.7,60.3
						l-3.3,30.2c-1.1,10.1-2.3,20.1-3.3,30.2l-3.1,30.3c-1,10.1-1.9,20.2-2.7,30.4c-1.7,20.3-3,40.6-3.7,61.1
						c-0.7,20.5-0.8,41,0.8,61.8c0.8,10.4,2.1,20.9,4.5,31.5c1.2,5.3,2.8,10.7,5,16.1c0.5,1.3,1.2,2.7,1.8,4.1
						c0.6,1.3,1.4,2.7,2.2,4.1c0.4,0.7,0.8,1.3,1.3,2l1.4,2c0.5,0.7,1.1,1.3,1.6,2l0.8,1c0.3,0.3,0.5,0.5,0.8,0.8
						c3.9,4.2,8.5,8.3,14.3,11.5c2.9,1.6,6.2,2.9,9.7,3.7c3.5,0.8,7.3,1,11,0.5c3.7-0.5,7.1-1.6,10.2-3.1c3.1-1.5,5.8-3.3,8.2-5.2
						c4.9-3.9,8.8-8.2,12.2-12.6c6.8-8.9,12-18.2,16.7-27.6c4.6-9.4,8.8-18.9,12.6-28.4c3.8-9.5,7.4-19.1,11-28.5
						c0.4-1.1,0.9-2.5,1.4-3.8c0.4-1.3,0.9-2.6,1.3-3.9c0.8-2.6,1.5-5.1,2.2-7.7c1.3-5.1,2.5-10.2,3.5-15.3
						c4.2-20.3,6.9-40.5,9.2-60.8c1.1-10.1,2.1-20.3,2.9-30.5c0.8-10.2,1.5-20.3,2-30.5c1-20.4,1.4-40.8,1.1-61.1
						c-0.2-10.2-0.6-20.4-1.3-30.6c-0.7-10.2-1.5-20.4-2.9-30.5c-0.7-5.1-1.5-10.1-2.4-15.1c-0.9-5-2-10-3.3-15
						c-1.3-4.9-2.8-9.8-4.7-14.6c-1.8-4.8-4.1-9.4-6.9-13.6c4.7,9,7,18.9,8.6,28.8c0.8,5,1.5,9.9,2,15c0.5,5,0.9,10,1.1,15.1
						c1,20.1,0.8,40.3-0.1,60.4c-0.4,10.1-1,20.1-1.8,30.2c-0.7,10.1-1.6,20.1-2.6,30.1c-1,10-2.1,20-3.3,30c-1.2,10-2.6,20-4,29.9
						c-1.5,9.9-3.1,19.9-4.9,29.7c-1.8,9.9-3.7,19.7-6,29.3c-1.1,4.8-2.4,9.6-3.7,14.3c-0.7,2.3-1.4,4.6-2.1,6.9
						c-0.4,1.1-0.8,2.2-1.2,3.3c-0.4,1.1-0.8,2.1-1.3,3.3c-3.8,9.4-7.6,18.8-11.5,28c-3.9,9.2-7.9,18.3-12.4,27
						c-4.4,8.7-9.3,17.1-14.9,24.2c-2.8,3.5-5.8,6.8-8.9,9.2c-3.1,2.4-6.2,3.9-8.9,4.2c-1.4,0.2-2.7,0.1-4.1-0.2
						c-1.4-0.3-2.9-0.9-4.4-1.7c-3.1-1.7-6.3-4.4-9.2-7.6c-0.2-0.2-0.4-0.4-0.5-0.6l-0.4-0.5l-0.8-1l-0.8-1.1
						c-0.3-0.4-0.5-0.7-0.8-1.2c-0.5-0.9-1-1.7-1.4-2.6c-0.4-0.9-0.9-1.8-1.3-2.9c-1.6-4-2.9-8.4-4-12.9c-2.1-9.2-3.3-18.9-4.2-28.6
						c-1.7-19.6-1.8-39.7-1.5-59.7c0.7-40.1,3.5-80.5,6.2-120.9l2.1-30.3c0.7-10.1,1.4-20.2,2-30.4c1.2-20.3,2.3-40.6,2.4-61
						c0-5.1-0.1-10.2-0.3-15.4c-0.1-2.6-0.3-5.2-0.5-7.8c-0.3-2.6-0.5-5.2-0.9-7.8c-0.5-2.6-0.8-5.2-1.6-7.8c-0.3-1.3-0.6-2.6-1-3.8
						l-1.3-3.8c-1.9-5-4.4-9.9-8-14.1c-3.5-4.2-8.1-7.5-13.2-9.5c-5.1-1.9-10.5-2.5-15.7-2.2c-5.2,0.3-10.3,1.5-15.2,3.1
						C3084.7,2643.2,3080,2645.2,3075.6,2647.8z"/>
				</g>
				<g>
					<path class="st8" d="M4144.3,3685.6c-0.3,11.8-0.7,23.5-1.2,35.2c-0.5,11.7-1,23.5-1.6,35.2l-2,35.2
						c-0.7,11.7-1.5,23.4-2.4,35.1c-3.3,46.8-7.4,93.6-12.4,140.2c-9.9,93.2-23.3,186.1-40.9,278c-17.6,92-39.5,183.1-67.2,272.5
						c-27.7,89.4-61.4,177.1-102.8,261.6c3-5,6-10.1,9-15.2c3-5,5.9-10.2,8.8-15.3l4.3-7.7l2.1-3.9l2.1-3.9l8.3-15.6
						c2.8-5.2,5.4-10.5,8-15.7l4-7.9l3.8-8l7.7-15.9l7.4-16.1c9.7-21.5,19-43.2,27.6-65.2c8.7-21.9,16.9-44.1,24.5-66.4
						c30.8-89.3,54.2-181,71.9-273.7c17.7-92.7,29.8-186.4,36.9-280.4c3.5-47,5.8-94.1,6.6-141.2c0.3-23.5,0.5-47.1,0.1-70.6
						c-0.2-11.8-0.5-23.5-0.9-35.3C4145.6,3709.1,4145.2,3697.3,4144.3,3685.6z"/>
				</g>
				<g>
					<path class="st8" d="M3881.7,3993.7l0.4,47l0.3,47c0.1,31.3,0.2,62.6-0.1,93.8c-0.5,62.5-1.8,125-5.1,187.2
						c-0.8,15.6-1.8,31.1-2.9,46.7c-1,15.5-2.4,31.1-3.8,46.6c-1.4,15.5-3.2,31-5,46.4c-1.9,15.4-4,30.8-6.5,46.2
						c-2.5,15.3-5.3,30.6-8.5,45.8c-3.3,15.2-7,30.2-11.4,45.1c-8.8,29.7-20,59-37.6,85l3.9-4.4c1.3-1.5,2.6-3,3.8-4.6
						c2.4-3.1,4.9-6.2,7-9.5l3.3-4.9c1.1-1.6,2.1-3.4,3.1-5l3.1-5.1l2.9-5.2c7.7-13.8,14.1-28.4,19.8-43.1
						c5.7-14.8,10.5-29.9,14.8-45.1l3.1-11.4c1-3.8,1.9-7.7,2.9-11.5c1-3.8,1.8-7.7,2.7-11.5l1.3-5.8l1.2-5.8
						c1.7-7.7,3.1-15.5,4.6-23.2c1.4-7.8,2.7-15.5,3.9-23.3c2.5-15.6,4.6-31.2,6.4-46.9c1.8-15.7,3.4-31.3,4.7-47
						c1.3-15.7,2.3-31.4,3.2-47.1c3.3-62.9,3.3-125.8,0.8-188.6c-1.3-31.4-3.2-62.7-5.8-94c-1.3-15.6-2.8-31.3-4.5-46.9
						c-0.9-7.8-1.8-15.6-2.7-23.4C3883.9,4009.2,3882.9,4001.5,3881.7,3993.7z"/>
				</g>
				<g>
					<path class="st8" d="M3801.3,4312.5c-3.5,5.9-6.7,12.1-9.9,18.2c-1.6,3.1-3.1,6.2-4.6,9.3l-4.5,9.3
						c-6,12.5-11.4,25.2-16.8,37.9c-10.5,25.6-20,51.6-28.4,77.9c-16.8,52.7-30,106.7-39.1,161.3c-9.4,54.6-14.5,109.9-16.1,165.2
						c-1.1,55.3,1.6,110.7,9.6,165.3c0.3-55.2,2-110,6.1-164.5c4.4-54.5,10.9-108.8,20.1-162.7c9-53.9,20.6-107.3,34.5-160.3
						c6.9-26.5,14.5-52.8,22.6-79c4.1-13.1,8.3-26.1,12.7-39.2l3.3-9.7l3.5-9.7C3796.5,4325.4,3798.9,4319,3801.3,4312.5z"/>
				</g>
				<g>
					<path class="st8" d="M4051.9,3349.3c-17.7,37.3-33.7,75.4-49.4,113.6c-15.7,38.2-30.5,76.8-45,115.4
						c-28.8,77.4-55.7,155.5-81.1,234.1l-18.7,59l-4.6,14.8l-4.5,14.8l-8.9,29.6c-12,39.5-23.3,79.2-34.4,119
						c-5.6,19.9-10.9,39.8-16.2,59.8c-5.3,20-10.5,39.9-15.6,59.9c-2.6,10-5,20-7.4,30.1c-2.4,10-4.9,20-7.3,30.1l-7.1,30.1
						c-2.3,10.1-4.7,20.1-6.9,30.2c3.3-9.8,6.5-19.6,9.8-29.4l9.6-29.4c6.4-19.6,12.4-39.3,18.8-58.9c6.3-19.6,12.6-39.3,18.8-58.9
						l9.3-29.5c1.5-4.9,3.1-9.8,4.7-14.7l4.7-14.7l9.4-29.5l9.3-29.5l4.6-14.7l4.7-14.7l9.4-29.4c12.4-39.3,25.1-78.5,37.6-117.7
						c25.3-78.4,50.8-156.8,76.8-235c13-39.1,26.1-78.2,39.4-117.2C4024.7,3427.3,4038.2,3388.3,4051.9,3349.3z"/>
				</g>
				<g>
					<g>
						<path class="st8" d="M2365.6,2628.6c-2.6,1.7-4.9,3.8-7.2,6c-2.2,2.2-4.4,4.5-6.4,6.9c-4.1,4.8-7.7,9.9-11.2,15.2
							c-6.8,10.6-12.3,22-17.1,33.6c-2.4,5.8-4.6,11.7-6.6,17.7c-2,6-3.7,12-5.4,18.1c-3.3,12.2-5.9,24.5-8.1,36.9
							c-4.2,24.8-6.5,49.9-7.5,75.1c-0.5,12.6-0.6,25.1-0.4,37.7c0.2,12.6,0.6,25.1,1.3,37.7l0.6,9.4l0.7,9.4l1.5,18.7
							c0.9,12.3,1.6,24.6,1.9,36.8c0.2,12.2,0.1,24.4-1,36.2c-0.6,5.9-1.4,11.7-2.7,17.2c-0.6,2.7-1.4,5.4-2.3,7.8
							c-0.9,2.4-1.9,4.7-3.1,6.4c-1.2,1.8-2.4,3-3.5,3.7c-1.1,0.6-2,0.9-3.5,0.9c-1.5,0-3.4-0.4-5.5-1.3c-2.1-0.8-4.4-2-6.6-3.5
							c-4.5-2.9-8.9-6.5-13.1-10.5c-4.3-4-8.4-8.3-12.4-12.7c-8-8.9-15.5-18.6-22.7-28.4c-3.6-4.9-7.2-9.9-10.6-15
							c-1.7-2.5-3.4-5.1-5.1-7.6c-1.7-2.5-3.4-5.2-4.9-7.6l-0.8-1.2l-0.8-0.8c-14-13-27.7-26.4-41-40.1
							c-13.4-13.7-26.4-27.7-39-42.1c-12.6-14.3-24.9-29-36.7-44.1c-5.9-7.5-11.6-15.2-17.3-22.9c-5.6-7.7-11.2-15.5-16.5-23.4
							c-21.5-31.6-40.9-64.8-57-99.5c-4-8.7-7.8-17.5-11.3-26.4c-3.6-8.9-6.9-17.9-9.9-27c-3-9.1-5.7-18.3-8.1-27.7
							c-2.3-9.3-4.3-18.8-5.4-28.3c0.2,9.7,1.6,19.3,3.2,28.8c1.6,9.6,3.8,19,6.2,28.4c2.4,9.4,5.2,18.7,8.2,27.9
							c3.1,9.2,6.4,18.3,10,27.4c14.3,36.1,32.4,70.7,53.1,103.7c20.6,33,43.9,64.3,68.8,94.2c12.5,14.9,25.4,29.4,38.7,43.6
							c13.3,14.2,27,27.9,41.1,41.4l-1.6-2c1.7,2.9,3.4,5.5,5.1,8.2c1.7,2.7,3.4,5.3,5.2,8c3.5,5.3,7.1,10.5,10.8,15.7
							c7.4,10.3,15.2,20.4,23.8,30.1c4.3,4.8,8.8,9.6,13.6,14.1c4.9,4.5,10.1,8.9,16.1,12.7c3,1.9,6.3,3.7,10,5.1
							c3.7,1.4,7.9,2.6,12.6,2.6c2.4,0,4.9-0.3,7.3-0.9c2.5-0.7,4.8-1.8,6.9-3.1c4.2-2.7,7.2-6.3,9.4-9.7c2.2-3.5,3.7-7,4.9-10.4
							c1.2-3.4,2.1-6.8,2.8-10.2c0.7-3.4,1.3-6.7,1.7-10c0.4-3.3,0.7-6.6,1-9.8c0.9-13,0.8-25.8,0.1-38.5
							c-0.7-12.7-1.8-25.2-3.3-37.7l-0.6-4.7l-0.5-4.6c-0.3-3.1-0.7-6.1-1-9.2l-0.9-9.2l-0.8-9.2c-4.2-49.2-5.2-98.9,0.6-147.9
							c2.9-24.5,7.8-48.8,15.6-72.2c3.9-11.7,8.7-23.1,14.6-34c2.9-5.4,6.2-10.7,9.8-15.7c1.8-2.5,3.7-4.9,5.8-7.3
							C2361.1,2632.9,2363.2,2630.6,2365.6,2628.6z"/>
					</g>
				</g>
				<g>
					<g>
						<path class="st8" d="M1400,4957c2.8-18.4,4.9-37,6.8-55.5c1.8-18.6,3.1-37.2,4-55.8c0.8-18.7,1-37.4,0.2-56.1
							c-0.4-9.4-1.1-18.8-2.2-28.1c-1.1-9.4-2.6-18.7-5-28l0.1,1.8c0.7-4.7,1.2-9.2,1.7-13.7c0.5-4.6,0.8-9.1,1.1-13.7
							c0.6-9.1,0.8-18.3,0.8-27.5c-0.1-18.3-1.2-36.7-4.1-55c-1.4-9.1-3.3-18.2-5.7-27.2l-0.8-3.1c-0.3-1-0.5-2.1-0.7-3.1
							c-0.4-2.1-0.8-4.3-1.2-6.4c-0.7-4.3-1.3-8.7-1.9-13.2c-2.2-17.7-3.8-35.7-5.1-53.6c-2.5-36-4.4-72-5.8-108.2
							c-1.5-36.1-2.7-72.2-3.8-108.4c-1.1-36.1-2-72.3-2.7-108.4l-0.1-6.8c-0.1-2.3,0-4.4-0.2-7l-1.1-13.7l-1.1-13.7l-1.2-13.6
							l-1.3-13.6c-0.4-4.5-0.9-9-1.4-13.6c-1-9-1.9-18.1-3-27.1c-4.3-36.1-9.5-72.1-15.6-107.9c-6.1-35.8-13.1-71.5-20.8-107
							c-7.8-35.5-16.4-70.8-25.7-105.9c-9.4-35.1-19.5-70-30.3-104.6c-10.9-34.6-22.4-69.1-34.6-103.2
							c-12.3-34.1-25.2-68.1-38.8-101.7c-27.2-67.3-57-133.5-89.5-198.3c-16.3-32.4-33.1-64.5-50.8-96.1
							c-8.9-15.8-17.8-31.5-27.1-47.1c-9.3-15.5-18.7-31-28.7-46.1c9.1,15.6,17.8,31.5,26.4,47.4c8.5,15.9,16.9,32,25.1,48.1
							c16.3,32.3,32.1,64.8,47.2,97.6c7.6,16.4,14.9,32.9,22.3,49.4c7.3,16.5,14.4,33.1,21.4,49.8c7,16.7,13.9,33.3,20.5,50.1
							c3.4,8.4,6.6,16.8,10,25.2c3.2,8.4,6.5,16.8,9.7,25.3c25.6,67.5,49,135.8,69.7,204.9c10.4,34.5,20.1,69.3,29.1,104.2
							c9.1,34.9,17.4,70,24.9,105.2c7.6,35.2,14.5,70.6,20.5,106.2c6.1,35.5,11.3,71.2,15.6,106.9c1.1,8.9,2.1,17.9,3.1,26.8
							c0.5,4.5,1,8.9,1.5,13.4l1.3,13.4l1.3,13.4l1.1,13.3l1.1,13.3c0.2,1.9,0.1,4.3,0.2,6.5l0.2,6.8c1,36.2,2.3,72.4,3.7,108.6
							c1.5,36.2,3.2,72.4,5.3,108.6c2.1,36.2,4.5,72.4,7.9,108.5c1.7,18.1,3.6,36.2,6.3,54.3c0.7,4.5,1.4,9.1,2.3,13.6
							c0.4,2.3,0.9,4.6,1.5,6.9c0.3,1.2,0.5,2.3,0.8,3.5l0.9,3.4c2.5,8.4,4.4,17.1,6,25.8c1.6,8.7,2.8,17.5,3.7,26.4
							c0.9,8.9,1.4,17.8,1.7,26.7c0.3,8.9,0.2,17.9-0.1,26.8c-0.1,4.5-0.4,8.9-0.6,13.4c-0.3,4.4-0.7,9-1.1,13.3l-0.1,1l0.2,0.8
							c2.5,8.7,4.3,17.7,5.7,26.8c1.4,9.1,2.4,18.3,3.1,27.5c0.7,9.2,1.2,18.5,1.5,27.7c0.3,9.3,0.4,18.6,0.4,27.8
							c0,18.6-0.7,37.2-1.6,55.8C1403.1,4919.9,1401.8,4938.5,1400,4957z"/>
					</g>
				</g>
				<g>
					<path class="st8" d="M1004.2,4154.5c1.3,7.7,2.8,15.3,4.3,22.9l4.7,22.8c3.2,15.2,6.6,30.4,10.1,45.5
						c7.1,30.3,14.7,60.4,22.8,90.3c16.3,60,34.5,119.4,55.1,178.1c20.6,58.7,43.4,116.7,70.1,173.1c13.4,28.1,27.8,55.9,43.8,82.7
						c8,13.4,16.4,26.6,25.5,39.3c2.3,3.2,4.6,6.3,6.9,9.5c2.3,3.1,4.7,6.2,7.1,9.3c2.4,3.1,4.9,6,7.4,9c2.5,3,5.1,5.9,7.7,8.8
						c-17.4-25.8-32.2-52.9-45.8-80.6c-13.6-27.7-26.2-55.9-38-84.4c-23.8-57-45.1-114.9-65.6-173.3c-20.4-58.3-39.9-117.1-58.9-176
						L1004.2,4154.5z"/>
				</g>
				<g>
					<path class="st8" d="M1505.2,3349.3l-1.7,21.5l-1.6,21.4l-3.2,42.9l-6.1,85.6l-6.2,85.5c-1.1,14.2-2.1,28.5-3.3,42.7
						c-1.1,14.2-2.2,28.5-3.4,42.7l-1.8,21.3c-0.6,7.1-1.3,14.2-1.9,21.3c-1.2,14.2-2.6,28.4-3.9,42.6c-2.7,28.4-5.8,56.8-9.1,85.1
						c-3.3,28.3-7.2,56.6-11.6,84.8c-2.1,14.1-4.7,28.2-7.2,42.2l-4.1,21.1c-1.5,7-3.1,14-4.5,21c2.5-6.7,5-13.5,7.4-20.2
						c2.2-6.8,4.4-13.7,6.6-20.5c1.1-3.4,2.1-6.9,3-10.3l2.9-10.4l1.5-5.2l1.3-5.2l2.6-10.5c6.9-27.9,12.6-56.1,17.5-84.5
						c1.2-7.1,2.3-14.2,3.5-21.3l1.7-10.7l1.5-10.7c1-7.1,2.1-14.2,3-21.3l2.7-21.4c0.9-7.1,1.6-14.3,2.5-21.4
						c0.8-7.1,1.6-14.3,2.3-21.4c1.5-14.3,2.7-28.6,4-42.9c1.1-14.3,2.3-28.6,3.2-42.9c0.9-14.3,1.8-28.6,2.5-43l1-21.5
						c0.3-7.2,0.5-14.3,0.8-21.5c0.5-14.3,0.9-28.7,1.1-43c0.5-28.7,0.6-57.4,0.2-86.1c-0.2-14.3-0.6-28.7-1.1-43l-0.9-21.5
						C1506.1,3363.7,1505.7,3356.5,1505.2,3349.3z"/>
				</g>
				<g>
					<path class="st8" d="M2639.2,3518.1c6.3,13.9,12.4,27.9,18.4,42c6,14,11.9,28.1,17.7,42.3c11.5,28.3,22.7,56.7,33.1,85.4
						c21,57.3,40.1,115.2,55.1,174.1l2.8,11l2.6,11.1l2.6,11.1l2.4,11.1l2.4,11.1l2.1,11.2c0.7,3.7,1.4,7.4,2.1,11.2l1.8,11.2
						c4.7,29.8,7.8,59.8,7.6,89.8c0.1,15.3,0.1,30.7,0.3,46l0.8,45.9c0.3,15.3,0.8,30.6,1.2,45.9l0.7,22.9l0.8,22.9
						c4.2,122.3,10.2,244.5,17.3,366.6c7.2,122.1,15.4,244.2,25.9,366.1c-2.2-122.3-6-244.6-10.1-366.8l-13.1-366.5l-0.8-22.9
						l-0.7-22.9l-1.4-45.8l-1.2-45.8l-0.7-45.7l-0.3-11.7l-0.2-5.9c-0.1-2-0.1-3.9-0.3-5.8l-0.9-11.6l-0.4-5.8
						c-0.2-1.9-0.4-3.9-0.6-5.8c-0.9-7.7-1.6-15.5-2.9-23.1l-1.7-11.5c-0.3-1.9-0.6-3.8-1-5.7l-1-5.7c-5.4-30.5-12.6-60.5-20.9-90.1
						c-1-3.7-2-7.4-3.1-11.1l-3.3-11c-1.1-3.7-2.2-7.4-3.4-11l-3.5-11c-1.2-3.7-2.3-7.3-3.5-11l-3.7-10.9c-1.2-3.6-2.4-7.3-3.7-10.9
						l-3.8-10.9c-10.3-28.9-21.4-57.5-33.1-85.8c-2.9-7.1-6-14.1-9-21.2l-9.2-21.1c-6.2-14-12.5-28-19-41.8
						c-6.5-13.8-13.2-27.6-20-41.3C2653.5,3545.2,2646.5,3531.6,2639.2,3518.1z"/>
				</g>
				<g>
					<path class="st8" d="M2558.2,3618.6c0.4,111.7,2.6,223.3,5.3,334.8c2.7,111.6,6,223.1,9.8,334.6c3.7,111.5,7.9,223,12.2,334.5
						l6.4,167.2l1.5,41.8l1.3,41.8c0.4,13.9,0.7,27.9,0.9,41.8l0.1,10.5l0,10.5c-0.1,3.5-0.1,7-0.2,10.4l-0.2,5.2l-0.5,5.2
						c1.3-6.9,1.9-13.9,2.5-20.8l0.8-10.5l0.6-10.5c0.7-14,1.2-27.9,1.6-41.9c0.4-14,0.7-27.9,0.9-41.9l0.6-41.9
						c0.5-55.8,0.1-111.7-0.5-167.5c-1.4-111.6-4.2-223.2-7.9-334.8c-3.8-111.5-8.5-223.1-14.1-334.5c-2.9-55.7-5.9-111.5-9.4-167.2
						C2566.2,3730,2562.7,3674.3,2558.2,3618.6z"/>
				</g>
				<g>
					<path class="st8" d="M3075.6,2978.3c-3.2,2.4-6.3,4.9-9.4,7.5c-3.1,2.6-6.1,5.2-9.2,7.9c-3,2.7-6,5.4-8.9,8.1l-8.8,8.3
						c-11.6,11.2-22.6,22.9-33.4,34.9c-21.4,24.1-41.4,49.5-60,76l-3.5,5l-3.4,5l-6.8,10.1l-3.4,5l-3.2,5.1l-6.5,10.3
						c-4.4,6.8-8.4,13.8-12.5,20.7l-6.1,10.5l-5.9,10.6c-3.9,7.1-7.9,14.1-11.5,21.4l-5.5,10.8l-2.8,5.4l-1.4,2.7l-1.3,2.7
						l-10.3,21.9l-1.3,2.7l-1.2,2.8l-2.4,5.6l-4.8,11.1c-1.6,3.7-3.2,7.4-4.8,11.2l-4.5,11.3l-4.5,11.3l-2.2,5.6
						c-0.7,1.9-1.4,3.8-2.1,5.7l-8.1,22.9c-0.7,1.9-1.4,3.8-2,5.7l-1.8,5.8l-3.7,11.6l-3.6,11.6l-0.9,2.9c-0.3,1-0.6,1.9-0.8,2.9
						l-1.6,5.8l-6.5,23.4l-0.8,2.9l-0.7,2.9l-1.4,5.9l-2.8,11.8c-1.8,7.9-3.8,15.7-5.3,23.6c-13,63.2-20.2,127.5-20.4,191.8
						c8.5-63.7,19.9-126.5,35.7-188.2c1.8-7.8,4.1-15.4,6.2-23l3.2-11.5l1.6-5.7l0.8-2.9l0.9-2.8c4.8-15.1,9.1-30.4,14.5-45.4
						l3.8-11.3l1.9-5.6c0.6-1.9,1.4-3.7,2-5.6l8.3-22.3c0.7-1.9,1.3-3.7,2.1-5.6l2.2-5.5l4.4-11.1l4.4-11.1
						c1.5-3.7,3.2-7.3,4.7-10.9l4.7-10.9l2.3-5.5l1.2-2.7l1.3-2.7l10-21.6l1.2-2.7l1.3-2.7l2.6-5.3l5.3-10.7
						c3.4-7.2,7.2-14.1,10.9-21.2l5.5-10.6l5.8-10.4c3.9-6.9,7.6-14,11.7-20.8l6-10.3l3-5.1l3.1-5.1l6.2-10.2l3.1-5.1l3.2-5
						c17-26.9,35.2-53,54.5-78.4C3032.9,3025.9,3053.2,3001.2,3075.6,2978.3z"/>
				</g>
				<g>
					<path class="st8" d="M2985.8,2816.8c-5.3,3.4-10.8,6.5-16.4,9.4c-2.8,1.5-5.5,3-8.4,4.3l-4.2,2.1l-4.2,2l-4.2,2l-4.3,1.9
						c-2.9,1.3-5.7,2.6-8.6,3.8l-8.6,3.7l-8.7,3.5c-2.9,1.2-5.8,2.3-8.7,3.4c-2.9,1.1-5.8,2.2-8.8,3.2l-8.8,3.1
						c-1.5,0.5-2.9,1-4.4,1.5l-4.5,1.4l-8.9,2.9c-3,1-6,1.8-8.9,2.7l-8.9,2.6l-9,2.4c-48.1,12.8-97.3,20.9-146.8,24.8l-9.3,0.7
						c-3.1,0.2-6.2,0.6-9.3,0.7l-18.6,0.9l-4.7,0.3c-1.6,0.1-3.1,0.1-4.7,0.1l-9.3,0.2l-9.3,0.2l-4.7,0.1l-4.7,0
						c-12.5,0-24.9,0.1-37.4-0.4c-6.2-0.2-12.5-0.3-18.7-0.5l-18.7-1c-12.5-0.5-24.9-1.7-37.4-2.5c-6.3-0.4-12.5-1.1-18.7-1.7
						l-18.7-1.8c-3.1-0.2-6.2-0.7-9.4-1l-9.4-1.1l-18.7-2.1l-18.7-2.5c-6.3-0.8-12.5-1.6-18.8-2.3c12.1,3.6,24.3,7.1,36.5,10.3
						c12.3,2.9,24.6,5.9,37,8.5l18.7,3.6c6.2,1.2,12.4,2.4,18.7,3.3l18.8,2.8c3.1,0.4,6.3,1,9.4,1.3l9.5,1l18.9,2.1
						c6.3,0.6,12.7,0.9,19,1.4c12.7,1.1,25.4,1.3,38.1,1.7l4.8,0.1l4.8,0l9.5,0l9.5,0c1.6,0,3.2,0,4.8,0l4.8-0.2l19.1-0.8
						c3.2-0.1,6.4-0.4,9.5-0.6l9.5-0.7c50.8-4,101.3-13.7,149.7-29.7l9.1-3l9-3.3c3-1.1,6-2.2,8.9-3.4l8.8-3.6l4.4-1.8
						c1.5-0.6,2.9-1.3,4.4-1.9l8.7-3.9c2.9-1.3,5.7-2.8,8.6-4.1c2.9-1.4,5.7-2.7,8.5-4.2c11.3-5.8,22.4-12.1,33.1-19
						C2966.1,2832.7,2976.4,2825.3,2985.8,2816.8z"/>
				</g>
			</g>
			<g>
				<circle class="st8" cx="2804.3" cy="3218.4" r="49.9"/>
				
					<ellipse transform="matrix(0.7071 -0.7071 0.7071 0.7071 -2397.3806 3261.2712)" class="st8" cx="2738" cy="4524.5" rx="49.9" ry="49.9"/>
				
					<ellipse transform="matrix(0.9871 -0.1602 0.1602 0.9871 -585.0365 481.4203)" class="st8" cx="2693.5" cy="3869.4" rx="49.9" ry="49.9"/>
			</g>
			<g>
				<path class="st7" d="M2255.4,1601.3c-0.1,10.4,0.1,20.9,0.3,31.3c0.2,10.4,0.6,20.9,1.2,31.3c0.3,5.2,0.6,10.5,1.1,15.7l0.4,3.9
					l0.5,4l0.2,2l0.3,2l0.3,2c0.1,0.3,0.1,0.7,0.2,1l0.3,1.1c0.7,2.9,1.6,5.4,2.5,7.9l1.5,3.7l1.6,3.7c2.2,4.9,4.5,9.6,6.9,14.3
					c4.8,9.4,10.1,18.5,15.6,27.5c5.5,9,11.3,17.7,17.3,26.4c3,4.3,6.1,8.6,9.2,12.9c1.5,2.1,3.1,4.2,4.7,6.3
					c1.6,2.1,3.2,4.2,4.8,6.3c6.4,8.3,13.1,16.5,19.8,24.6c27.3,32.1,57.3,61.8,89.9,88.7c4.1,3.4,8.1,6.6,12.1,9.8l3,2.4
					c1,0.8,1.9,1.7,2.9,2.6l5.8,5.2l23.3,20.6c15.5,13.8,31.2,27.4,46.8,41.2l0.7,0.6l0.7,0.4l3.7,2.3l3.7,2.1
					c2.4,1.4,4.9,2.8,7.4,4.2c4.9,2.7,9.9,5.4,14.9,7.9c10,5.2,20,10.1,30.2,14.8c20.3,9.5,41,18,62.1,25.7
					c21.1,7.6,42.4,14.4,64.1,20.1c10.8,2.8,21.7,5.5,32.7,7.7c11,2.3,22,4.3,33.1,6c44.3,6.7,89.7,8.2,134.1,2.2
					c11.1-1.5,22.1-3.6,33-6l8.2-1.9l8.1-2.1c2.7-0.7,5.4-1.5,8.1-2.3c2.7-0.8,5.3-1.6,8-2.5l7.9-2.7l7.8-2.9c2.6-0.9,5.2-2,7.8-3.1
					l3.9-1.6c1.3-0.5,2.6-1.1,3.8-1.7l7.6-3.5c2.5-1.2,5-2.5,7.5-3.7c5-2.4,9.8-5.3,14.6-7.9c-40.4,18.2-83.6,28.9-127.2,32
					c-43.6,3.3-87.5-0.1-130.4-8c-21.5-4.1-42.7-9.1-63.7-15.2c-10.5-3.1-20.9-6.3-31.3-9.7c-10.4-3.5-20.6-7.2-30.9-11.1
					c-20.5-7.7-40.6-16.4-60.3-25.7c-9.9-4.7-19.7-9.5-29.4-14.6c-4.8-2.5-9.6-5.1-14.4-7.8c-2.4-1.3-4.7-2.6-7.1-4l-3.5-2l-3.4-2
					l1.3,1c-15.8-13.7-31.5-27.5-47.3-41.1l-23.7-20.5l-5.9-5.1c-1-0.8-2-1.7-3-2.5l-3.1-2.4c-4.1-3.2-8.4-6.4-12.3-9.6l-6-4.8
					c-2-1.6-4-3.3-5.9-4.9l-5.9-4.9l-5.8-5c-7.8-6.7-15.4-13.6-23-20.6c-15-14.1-29.5-28.7-43.4-44c-13.9-15.2-27.2-31-39.8-47.4
					c-12.5-16.4-24.5-33.3-35-50.9c-2.7-4.4-5.2-8.9-7.5-13.4l-1.7-3.4l-1.6-3.4c-1-2.3-2-4.6-2.7-6.8l-0.3-0.8
					c-0.1-0.3-0.1-0.6-0.2-0.9l-0.4-1.8l-0.4-1.8l-0.4-1.9l-0.7-3.8l-0.6-3.8c-0.8-5.1-1.5-10.2-2.2-15.4c-1.4-10.3-2.5-20.6-3.6-31
					C2257.4,1622.1,2256.4,1611.7,2255.4,1601.3z"/>
			</g>
			<g class="st9">
				<path class="st10" d="M3289.6,1179.1c-3.4-7-7.6-13.6-12.2-20c-4.6-6.3-9.7-12.4-15-18.1c-10.8-11.5-22.9-21.8-36.1-30.7
					c-6.6-4.5-13.4-8.6-20.5-12.2c-3.5-2-7.1-3.6-10.8-5.3l-2.7-1.3l-1.4-0.6l-1.4-0.6l-5.6-2.2c-1.9-0.7-3.7-1.5-5.6-2.2l-5.7-1.9
					l-5.7-1.9l-1.4-0.5l-1.4-0.4l-2.9-0.8c-1.9-0.5-3.9-1-5.8-1.5c-1.9-0.5-3.9-1-5.8-1.4l-11.8-2.3c-4-0.6-7.9-1-11.9-1.5
					c-4-0.6-7.9-0.8-11.9-1c-8-0.6-15.9-0.5-23.9-0.4c-4,0.2-7.9,0.5-11.9,0.8c-2,0.1-4,0.3-5.9,0.4c-2,0.2-3.9,0.5-5.9,0.8
					l-11.7,1.6c-3.9,0.7-7.7,1.6-11.6,2.4c-7.8,1.4-15.3,3.7-22.8,5.9c-3.8,1-7.5,2.3-11.2,3.6l-11,4c-7.3,2.9-14.4,6.1-21.4,9.3
					c-7,3.5-13.8,7.2-20.5,11c7.6-1.7,15.1-3.6,22.5-5.5c3.8-0.8,7.5-1.6,11.2-2.5l5.6-1.3c1.9-0.4,3.7-0.9,5.6-1.2l11.2-2.1
					l5.6-1.1l1.4-0.3l1.4-0.2l2.8-0.4c3.7-0.5,7.5-1.1,11.2-1.7c3.7-0.7,7.5-0.9,11.2-1.3c3.7-0.4,7.4-0.9,11.2-1.2l11.2-0.7
					c1.9-0.1,3.7-0.3,5.6-0.3c1.9,0,3.7,0,5.6-0.1c3.7,0,7.4-0.2,11.1-0.1c3.7,0.2,7.4,0.3,11.1,0.4c3.7,0,7.4,0.5,11.1,0.8
					c7.4,0.4,14.7,1.6,22,2.6c29,4.9,57.3,14.2,83.4,28.4c13.1,7,25.7,15.2,37.7,24.3C3267.6,1157.7,3279.1,1167.7,3289.6,1179.1z"
					/>
				<path class="st10" d="M3072.3,1222.4l4.2-0.3c1.4-0.1,2.8-0.2,4.2-0.2c2.8,0,5.6,0,8.4-0.1l2.1,0l2.1,0.1l4.2,0.2
					c11.1,0.4,22.1,1.5,32.9,3.6c1.4,0.2,2.7,0.4,4.1,0.7l4,0.9c2.7,0.6,5.4,1.2,8,2l4,1.1c1.3,0.4,2.7,0.7,4,1.2l7.9,2.6
					c10.5,3.6,20.8,8.1,30.8,13.1c10.1,5,19.9,10.8,29.5,17.1c9.6,6.3,19,13.1,28.1,20.7c-2.8-5.3-6.2-10.2-9.8-14.9
					c-3.6-4.7-7.6-9.3-11.8-13.6c-8.3-8.7-17.6-16.5-27.6-23.3c-2.5-1.6-5.1-3.4-7.6-5c-2.6-1.5-5.2-3.1-7.9-4.6
					c-2.7-1.4-5.4-2.9-8.1-4.2l-8.4-3.8c-2.8-1.2-5.7-2.2-8.6-3.3c-1.4-0.6-2.9-1-4.4-1.5l-4.4-1.4c-2.9-1-5.9-1.6-8.9-2.4l-4.5-1.1
					c-1.5-0.3-3-0.6-4.5-0.9l-4.5-0.8c-1.5-0.3-3-0.5-4.6-0.7l-9.2-1c-3.1-0.2-6.1-0.3-9.2-0.4c-1.5,0-3.1-0.2-4.6-0.1
					c-1.5,0-3.1,0.1-4.6,0.1l-4.6,0.2l-2.3,0.1l-2.3,0.2c-3,0.3-6.1,0.6-9.1,1c-1.5,0.1-3,0.4-4.5,0.7l-4.5,0.8
					c-3,0.6-6,1.1-8.9,1.9c-2.9,0.7-5.9,1.5-8.8,2.3c-1.5,0.4-2.9,0.9-4.3,1.3c-1.4,0.5-2.9,1-4.3,1.5l-4.3,1.5l-2.1,0.7
					c-0.7,0.3-1.4,0.6-2.1,0.9l-8.3,3.6c-1.4,0.6-2.7,1.2-4.1,1.9c-1.3,0.7-2.7,1.4-4,2.1c-2.6,1.4-5.3,2.8-7.9,4.3
					c-1.3,0.7-2.6,1.5-3.8,2.3l-3.7,2.4c-2.5,1.7-4.9,3.3-7.3,5c2.9-0.7,5.8-1.4,8.6-2.1l4.2-1.2c1.4-0.4,2.8-0.8,4.2-1.1
					c2.9-0.6,5.7-1.3,8.5-2c1.4-0.3,2.8-0.7,4.2-1c1.4-0.3,2.8-0.6,4.2-0.8l8.4-1.7l2.1-0.4l2.1-0.3l4.2-0.7
					c1.4-0.2,2.8-0.4,4.2-0.7c1.4-0.2,2.8-0.5,4.2-0.6"/>
				<circle class="st10" cx="3112.3" cy="1248.5" r="36.9"/>
			</g>
			<g class="st9">
				<path class="st10" d="M2823.4,1051.8c-5.6-5.9-12-11.1-18.7-15.9c-6.7-4.8-13.6-9.2-20.8-13.1c-1.8-1-3.6-2-5.4-2.9
					c-1.8-0.9-3.6-1.9-5.5-2.8l-5.6-2.6l-2.8-1.3l-2.8-1.2l-5.7-2.4c-1.9-0.8-3.8-1.5-5.8-2.2l-5.8-2.2c-1.9-0.7-3.9-1.3-5.9-2
					c-31.3-10.4-64.3-15.9-97.2-16.9c-32.9-1.2-65.9,2.1-97.9,8.6l-6,1.2c-2,0.5-4,1-6,1.4c-4,1-7.9,1.9-11.9,2.9
					c-2,0.5-4,1-5.9,1.6l-5.9,1.7l-11.7,3.5c-7.7,2.6-15.4,5.4-23,8.2c-7.5,3-15,6.3-22.4,9.6c8.1-1.2,16-2.5,23.9-4
					c4-0.6,8-1.2,11.9-1.9c4-0.6,7.9-1.4,11.9-1.9l11.9-1.7c4-0.5,7.9-1.3,11.9-1.7c4-0.5,7.9-1,11.9-1.5c2-0.2,3.9-0.5,5.9-0.7
					l5.9-0.6c31.6-3.4,63.2-5.1,94.6-4c31.4,0.9,62.7,4.7,93.4,11.8l5.8,1.3l5.7,1.5c3.8,0.9,7.6,2.1,11.4,3.1l2.9,0.8l2.8,0.9
					l5.7,1.8c1.9,0.6,3.7,1.3,5.6,1.9c1.9,0.6,3.8,1.3,5.6,2l5.6,2l5.5,2.2c1.9,0.7,3.7,1.5,5.5,2.3c1.8,0.8,3.7,1.6,5.5,2.4
					l2.7,1.2l2.7,1.3c1.8,0.8,3.6,1.7,5.4,2.6C2816.4,1047.9,2819.9,1049.8,2823.4,1051.8z"/>
				<path class="st10" d="M2676.7,1127.8c-3-1.3-6.1-2.2-9.2-3.3c-1.6-0.5-3.1-1.1-4.7-1.5l-4.7-1.3l-4.7-1.3
					c-1.6-0.4-3.2-0.7-4.8-1c-1.6-0.3-3.2-0.6-4.8-1l-2.4-0.5l-2.4-0.3l-9.7-1.3l-9.8-0.6l-2.4-0.2l-2.4,0l-4.9,0l-4.9,0
					c-1.6,0-3.2,0.2-4.9,0.3c-3.2,0.2-6.5,0.4-9.7,0.7l-9.6,1.3c-1.6,0.2-3.2,0.4-4.8,0.7l-4.7,1l-9.4,2l-9.2,2.6
					c-3.1,0.9-6.2,1.7-9.1,2.9c-3,1.1-6,2.1-9,3.3c-3,1-5.9,2.4-8.8,3.7l-8.7,3.9c-5.7,2.8-11.2,5.9-16.7,8.9
					c-5.4,3.3-10.7,6.8-15.8,10.4c6.1-1.5,12.1-3.2,18.1-5c3-0.7,6-1.5,9-2.3c3-0.8,5.9-1.7,8.9-2.4l9-2.1c3-0.7,5.9-1.5,8.9-2
					c6-1.1,11.9-2.5,17.8-3.3l8.9-1.4l8.9-1l4.4-0.5l4.5-0.3l8.9-0.6c3,0,5.9-0.1,8.9-0.2c1.5,0,3-0.1,4.4-0.1l4.4,0.2l4.4,0.1
					l2.2,0l2.2,0.2l8.8,0.7l8.7,1.1l2.2,0.3l2.2,0.4c1.4,0.3,2.9,0.5,4.3,0.8c1.4,0.3,2.9,0.5,4.3,0.8l4.3,1l4.3,1
					c1.4,0.3,2.8,0.8,4.3,1.1c2.8,0.8,5.7,1.5,8.5,2.4c1.4,0.5,2.8,0.9,4.2,1.4l2.1,0.7l2.1,0.8c5.5,2,11.1,4.2,16.5,6.7
					c10.8,4.9,21.3,10.7,31.5,17.3c10.1,6.7,19.9,14.1,29.2,22.6c-2.8-5.7-6.3-11-10.1-16c-3.8-5.1-8.1-9.8-12.6-14.4
					c-9-9-19.2-17.1-30.3-23.9l-2.1-1.3l-2.1-1.2l-4.2-2.4c-0.7-0.4-1.4-0.8-2.1-1.2l-2.2-1.1l-4.4-2.1l-2.2-1.1"/>
				
					<ellipse transform="matrix(0.7071 -0.7071 0.7071 0.7071 -53.1241 2192.5847)" class="st10" cx="2620.1" cy="1160.4" rx="36.9" ry="36.9"/>
			</g>
			<g>
				<g>
					<path class="st7" d="M3374.7,1428.3c3.1-2.4,6.3-4.7,9.6-6.8c3.3-2.1,6.7-4.1,10.2-5.7c3.5-1.6,7.1-3,10.7-3.8
						c3.6-0.7,7.3-0.8,10.4,0.4c3.1,1.2,5.4,3.6,7,6.7c0.8,1.5,1.4,3.2,1.9,4.9c0.5,1.7,0.8,3.5,1.1,5.4c1,7.3,1,15,0.3,22.7
						c-0.3,3.8-0.7,7.7-1.3,11.5l-0.9,5.6l-0.2,1.4l-0.3,1.4l-0.6,2.8c-0.4,1.9-0.8,3.7-1.3,5.6l-1.5,5.6l-0.7,2.8l-0.9,2.8
						l-1.7,5.5c-0.5,1.8-1.3,3.6-1.9,5.5l-1.9,5.5c-1.4,3.6-2.8,7.2-4.3,10.8c-1.6,3.5-3,7.2-4.6,10.7l-2.4,5.3l-1.2,2.6l-1.3,2.6
						c-13.5,28-29.3,55-45.9,81.5c-2.1,3.3-4.2,6.6-6.3,9.9l-6.4,9.8c-4.3,6.6-8.6,13.1-13,19.6c-8.7,13-17.7,25.9-26.8,38.8
						c10.8-11.5,20.9-23.6,30.8-35.9c4.9-6.2,9.7-12.4,14.4-18.7c4.7-6.3,9.3-12.7,13.8-19.2c9.1-12.9,17.7-26.2,25.8-39.7l3-5.1
						l2.9-5.2c2-3.4,3.9-6.9,5.8-10.4c1.9-3.5,3.7-7,5.5-10.5c1.8-3.5,3.5-7.1,5.3-10.7c6.8-14.3,13-29,17.7-44.4l1.7-5.8l0.8-2.9
						l0.7-2.9l1.4-5.9c0.4-2,0.7-4,1.1-5.9c0.8-3.9,1.2-8,1.7-12c0.4-4,0.6-8,0.8-12c0.1-4,0.1-8-0.1-12.1
						c-0.2-4.1-0.7-8.1-1.6-12.2c-0.5-2-1-4.1-1.7-6.1c-0.7-2-1.6-4-2.8-5.9c-1.2-1.9-2.6-3.7-4.3-5.2c-1.8-1.5-3.8-2.7-6-3.3
						c-4.4-1.3-8.9-0.7-12.9,0.4c-4,1.2-7.6,3-11.1,5.1C3386.3,1417.5,3380.1,1422.6,3374.7,1428.3z"/>
				</g>
				<g>
					<path class="st7" d="M3309.4,1549.9c-7,15.8-13.1,31.9-19.1,48c-5.9,16.1-11.5,32.4-16.8,48.7c-5.4,16.3-10.5,32.7-15.5,49.1
						c-1.3,4.1-2.5,8.2-3.7,12.3c-1.3,4.1-2.5,8.2-3.7,12.3c-1.2,4.1-2.5,8.2-3.6,12.4c-0.6,2.1-1.2,4.1-1.8,6.2
						c-0.6,2.1-1.2,4.1-1.8,6.2c2.1-3.7,4.3-7.5,6.2-11.4c1.9-3.9,3.8-7.8,5.6-11.7c1.8-3.9,3.5-7.9,5.2-11.8c1.7-4,3.3-8,4.9-12
						c6.4-16,12.2-32.2,17.6-48.6c5.4-16.3,10.3-32.8,14.8-49.4C3302.2,1583.6,3306.3,1566.9,3309.4,1549.9z"/>
				</g>
			</g>
			<g class="st9">
				<g class="st11">
					<g>
						<g>
							<path class="st8" d="M2949.1,1227.9c-3.8,13.9-6.3,28.2-8.2,42.5c-1.8,14.3-2.8,28.8-2.8,43.4c0,7.3,0.2,14.6,0.8,21.8
								c0.6,7.3,1.4,14.5,2.6,21.8c1.2,7.2,2.9,14.4,4.9,21.5l1.6,5.3l1.9,5.2c1.3,3.5,2.6,6.8,3.9,10.1l7.9,20
								c2.6,6.6,5.2,13.3,7.5,20c2.4,6.7,4.5,13.4,6.1,20.1c1.6,6.8,2.8,13.6,2.8,20.3c0,3.4-0.2,6.7-0.9,9.9
								c-0.7,3.2-1.7,6.3-3.3,9.2c-1.5,2.9-3.5,5.6-5.8,8c-2.3,2.4-5,4.5-7.9,6.4c-5.8,3.8-12.3,6.5-19.1,8.6
								c-3.4,1.1-6.8,2-10.3,2.8c-3.5,0.9-7,1.5-10.5,2.2c7.2-0.2,14.4-0.9,21.6-2.3c3.6-0.7,7.1-1.6,10.6-2.7
								c3.5-1.2,7-2.5,10.3-4.3c3.3-1.8,6.5-3.9,9.4-6.4c2.9-2.6,5.4-5.6,7.5-8.9c2.1-3.3,3.6-7,4.6-10.8c1-3.8,1.6-7.6,1.7-11.4
								c0.4-7.7-0.6-15.1-2.1-22.4c-1.5-7.3-3.5-14.3-5.7-21.3c-2.2-6.9-4.8-13.7-7.3-20.5l-7.8-20.1c-1.3-3.3-2.7-6.7-3.9-10
								l-1.8-4.9l-1.6-5c-2-6.7-3.7-13.5-5.1-20.4c-1.3-6.9-2.4-13.9-3.2-20.9c-0.8-7-1.3-14.1-1.7-21.2
								c-0.8-14.2-0.7-28.5-0.1-42.8C2946.3,1256.5,2947.4,1242.2,2949.1,1227.9z"/>
						</g>
					</g>
					<g>
						<g>
							<path class="st8" d="M2933.1,1472.7c-1-1.4-2.3-2.6-3.6-3.7c-1.3-1.1-2.7-2.1-4.2-3c-3-1.8-6.2-3.2-9.8-4
								c-3.5-0.8-7.3-1-11-0.5c-1.9,0.2-3.7,0.7-5.5,1.3c-0.9,0.3-1.8,0.7-2.6,1.1c-0.8,0.4-1.7,0.8-2.5,1.3l-2.4,1.6
								c-0.8,0.6-1.5,1.2-2.2,1.7c-0.7,0.6-1.4,1.3-2,1.9c-0.6,0.7-1.3,1.3-1.8,2l-1.7,2.1c-0.5,0.7-1,1.5-1.5,2.2
								c-1,1.5-1.7,3.1-2.5,4.6c-0.4,0.8-0.7,1.6-1,2.4c-0.3,0.8-0.6,1.6-0.9,2.4c-0.5,1.6-1,3.3-1.3,4.9c-0.3,1.7-0.6,3.3-0.8,5
								c-0.1,1.7-0.2,3.4-0.2,5.1c3.9-5.6,7.1-11.1,10.9-15.9c3.7-4.8,7.7-8.9,12.3-11.7c4.6-2.7,9.8-4,15.7-4
								C2920.4,1469.8,2926.6,1470.9,2933.1,1472.7z"/>
						</g>
					</g>
				</g>
				<g class="st11">
					<g>
						<g>
							<path class="st8" d="M2817.1,1211.8c-1.2,14.4-2.8,28.6-5.1,42.7c-2.2,14.1-5,28.1-8.5,41.9c-1.7,6.9-3.7,13.7-5.8,20.5
								c-2.2,6.7-4.5,13.4-7.2,19.9c-2.7,6.5-5.6,12.9-8.9,19l-2.5,4.6l-2.7,4.5c-1.8,3-3.8,6-5.7,9l-11.6,18.2
								c-3.8,6.1-7.6,12.3-11.1,18.7c-3.5,6.4-6.9,12.9-9.8,19.8c-2.8,6.8-5.3,14-6.4,21.6c-0.6,3.8-0.8,7.7-0.5,11.6
								c0.3,3.9,1,7.8,2.4,11.5c1.4,3.7,3.3,7.1,5.6,10.2c2.4,3.1,5.1,5.8,8,8.1c2.9,2.4,6,4.4,9.2,6.2c3.2,1.8,6.5,3.4,9.9,4.8
								c6.7,2.8,13.7,4.8,20.7,6.5c-3.3-1.4-6.7-2.7-9.9-4.2c-3.3-1.5-6.5-3-9.6-4.8c-6.2-3.4-12.2-7.3-17.1-12.1
								c-2.5-2.4-4.7-5-6.5-7.8c-1.8-2.8-3.2-5.8-4.1-8.9c-0.9-3.1-1.4-6.4-1.4-9.7c0-3.3,0.4-6.6,1-9.9c1.3-6.6,3.8-13.1,6.7-19.4
								c2.9-6.3,6.3-12.5,9.9-18.6c3.6-6.1,7.4-12.1,11.3-18.1l11.7-18.1c1.9-3.1,3.9-6,5.8-9.2l2.8-4.8l2.6-4.9
								c3.4-6.6,6.4-13.3,9-20.2c2.6-6.9,4.9-13.8,6.8-20.9c2-7,3.6-14.1,5-21.3c2.8-14.3,4.6-28.7,5.7-43.1
								C2817.7,1240.7,2818.1,1226.2,2817.1,1211.8z"/>
						</g>
					</g>
					<g>
						<g>
							<path class="st8" d="M2785.1,1455c6.7-0.4,13-0.4,18.7,0.8c5.7,1.1,10.6,3.5,14.6,7c4,3.6,7.1,8.4,9.8,13.8
								c2.7,5.4,4.9,11.4,7.6,17.7c0.4-1.7,0.6-3.3,0.8-5c0.2-1.7,0.2-3.4,0.2-5.1c0-1.7-0.2-3.4-0.3-5.1c-0.1-0.9-0.3-1.7-0.4-2.5
								c-0.2-0.8-0.3-1.7-0.5-2.6c-0.5-1.7-0.8-3.4-1.5-5c-0.3-0.8-0.6-1.7-1-2.5l-1.2-2.4c-0.4-0.8-0.9-1.6-1.4-2.3
								c-0.5-0.8-1-1.6-1.6-2.3c-0.6-0.7-1.2-1.4-1.8-2.1l-2-2c-0.7-0.6-1.5-1.2-2.2-1.8c-0.8-0.6-1.6-1.1-2.4-1.6
								c-1.7-0.9-3.4-1.8-5.2-2.4c-3.6-1.2-7.3-1.7-10.9-1.6c-3.6,0.1-7.1,0.9-10.3,2c-1.6,0.6-3.2,1.3-4.7,2.1
								C2787.9,1452.9,2786.4,1453.9,2785.1,1455z"/>
						</g>
					</g>
				</g>
			</g>
			<g class="st9">
				<path class="st12" d="M2986.5,1757c0,0-21.4-142.5-145.7-110.4c0,0-85.1-79-186.5,47.8C2654.3,1694.4,2788.7,1790,2986.5,1757z"
					/>
				<g class="st11">
					<path class="st8" d="M2986.5,1757c-2.6-2.5-5.4-4.9-8.2-7.2c-2.8-2.3-5.7-4.5-8.7-6.7c-5.9-4.4-12-8.3-18.2-12.2
						c-12.5-7.6-25.5-14.4-39-20.2c-13.4-5.9-27.3-10.8-41.4-15c-14.1-4.1-28.4-7.5-42.9-10l-2.7-0.5l-2.7-0.4l-5.4-0.8l-5.4-0.8
						c-1.8-0.3-3.6-0.4-5.5-0.6l-10.9-1.1l-11-0.7c-1.8-0.1-3.7-0.3-5.5-0.3l-5.5-0.1c-3.7-0.1-7.3-0.2-11-0.2l-11,0.2l-5.5,0.1
						l-5.5,0.3c-29.2,1.6-58.2,6.1-86.3,13.8c28.9-3.7,57.7-5.9,86.5-5.9l5.4,0l5.4,0.1l10.8,0.3l10.8,0.6l5.4,0.3
						c1.8,0.1,3.6,0.3,5.4,0.5l10.7,0.9l10.7,1.3c1.8,0.2,3.6,0.4,5.3,0.7l5.3,0.8l5.3,0.8l2.7,0.4l2.6,0.5l10.6,1.9l10.5,2.2
						c3.5,0.7,7,1.6,10.5,2.4l5.2,1.3l5.2,1.4c13.9,3.7,27.5,8.1,41,13.2c13.4,5.1,26.6,10.8,39.6,17.2c6.5,3.2,12.8,6.6,19.1,10.2
						l4.7,2.7l4.6,2.8C2980.5,1752.9,2983.6,1754.9,2986.5,1757z"/>
				</g>
			</g>
			<g>
				<g>
					<path class="st7" d="M2250.4,1388.1c-3.4,16.9-4.9,34.1-5.8,51.2c-0.8,17.2-0.9,34.4,0,51.5c0.8,17.2,2.3,34.3,4.7,51.3
						c2.3,17,5.7,33.9,10.1,50.5c-0.1-8.6-0.7-17.2-1-25.7l-1.3-25.6c-1-17-1.7-34-2.6-51c-0.8-17-1.5-34-2.1-51
						C2251.8,1422.3,2251.2,1405.3,2250.4,1388.1z"/>
				</g>
				<g>
					<path class="st7" d="M2169.7,1212c-7.4-6.1-15.2-11.6-23.4-16.7c-8.2-5.1-16.7-9.6-25.8-13.2c-4.5-1.8-9.2-3.3-14-4.4
						c-4.8-1.1-9.8-1.8-14.9-1.7c-2.6,0.1-5.1,0.3-7.7,0.8c-2.6,0.6-5.1,1.4-7.5,2.5c-2.4,1.1-4.7,2.6-6.8,4.3c-1.1,0.8-2,1.8-3,2.7
						c-0.9,1-1.8,2-2.6,3.1c-3.2,4.2-5.4,9.1-7,13.9c-1.6,4.9-2.5,9.9-3.1,14.8c-1.2,9.8-1.5,19.6-1.1,29.3c0.4,9.7,1.3,19.4,2.7,29
						l0.5,3.6l0.6,3.6l1.2,7.1c1,4.7,1.8,9.5,2.9,14.2l1.6,7.1l1.8,7l0.9,3.5l1,3.5l1.9,7c2.8,9.2,5.6,18.4,8.9,27.5
						c6.5,18.1,13.8,36,22.4,53.2c8.5,17.3,18.3,33.9,29.5,49.6l4.4,5.8c1.4,1.9,3,3.7,4.6,5.6l2.3,2.8l2.4,2.7
						c1.6,1.8,3.2,3.6,4.9,5.3l2.6,2.5c0.9,0.8,1.7,1.7,2.6,2.5c1.8,1.6,3.6,3.2,5.4,4.7l5.7,4.3c2,1.3,4,2.6,6.1,3.9l-5.6-4.5
						l-5.2-4.9c-1.7-1.7-3.3-3.4-4.9-5.1c-0.8-0.8-1.6-1.8-2.3-2.7l-2.3-2.7c-6-7.3-11.6-15-16.6-23c-1.3-2-2.5-4-3.7-6l-1.9-3
						l-1.8-3.1c-1.2-2.1-2.4-4.1-3.5-6.2l-3.3-6.3c-1.1-2.1-2.2-4.2-3.2-6.3c-1.1-2.1-2.2-4.2-3.2-6.3c-2-4.3-4.1-8.5-6-12.9
						c-1-2.2-1.9-4.3-2.9-6.5l-2.7-6.6l-1.4-3.3l-1.3-3.3l-2.6-6.6c-3.4-8.8-6.6-17.7-9.6-26.7c-6-18-11.1-36.2-15.2-54.6
						c-1.1-4.6-1.9-9.2-2.9-13.9l-1.2-7l-0.6-3.5l-0.5-3.5c-1.5-9.3-2.4-18.6-3-28c-0.6-9.3-0.6-18.7,0.3-27.9
						c0.4-4.6,1.2-9,2.4-13.3c1.2-4.3,2.9-8.3,5.3-11.8c0.6-0.9,1.3-1.7,1.9-2.5c0.7-0.7,1.4-1.5,2.2-2.2c1.5-1.4,3.2-2.6,5.1-3.5
						c1.9-1,3.8-1.7,5.9-2.3c2.1-0.5,4.2-0.9,6.5-1c8.9-0.6,18.1,1.3,27,4.2c8.9,2.8,17.6,6.7,26.1,11c4.2,2.1,8.4,4.4,12.5,6.8
						C2161.6,1206.8,2165.7,1209.3,2169.7,1212z"/>
				</g>
			</g>
			<path class="st13" d="M2120.5,832.4c10,73,31.3,245.7,16.4,297.5c10.1,8.6,80.4-0.1,89.1,236.8l35.5-46.9c0,0-2-281.3,46.2-365.7
				c0,0-1.3,34.1-8,48.9c0.7-0.9,46.3-60.5,56.9-85.7l-5.4,41.5l50.2-107.8l-10.7,56.3l46.2-88.4l-0.7,42.9l54.3-79.7
				c0,0,2,32.8-14.1,59.6c1.2-1.3,78.8-80.4,85.5-123.3l-10.5,75l72.3-128.6l-14.7,85.7l71-99.1l-12.1,75l61.6-57.6
				c0,0-2.7,36.2-26.8,75c1.1-0.7,72.4-47.1,85.7-77.7c0,0,10.7,37.5-25.4,87c1.4-1.3,47.3-43.6,73.7-95.1l2.7,65.6l53.6-69.7
				c0,0-5.4,49.6-37.5,93.8c0,0,73.7-13.4,95.1-87.1c0,0,100.5,56.3,120.6,104.5l-30.1-85.4l78.4,106.5l-24.1-93.4l95.5,152.7
				l-43.2-137.7l87.1,181.2l-13.4-132.6c0,0,58.9,105.2,48.2,190.9c0,0,29.5-54.9,30.8-77.7l-8.7,129.9l30.8-61l-13.1,123.9
				l42.2-52.2c0,0-33.8,426-33.8,485c0,0,26.8-103.2,65-139.3c0,0,50.2-204.3,106.5-278l-25.4,13.4c0,0,58.6-89.4,95.5-110.9
				l-43-25.2l72.2-5.4l-49.2-36.4l88.6-6.3l-86.1-44.7L3640,878c-12.7-50.4-143.9-144-143.9-144l110.5,50.2
				c-29.7-86.3-148.8-125.9-173.3-133.2l136.7,39.2c-31.3-44-164.4-123.8-164.4-123.8l76.7,16.9c-53.3-70.1-169.5-89.3-169.5-89.3
				l70.2,4.1C3250.8,333.8,3019,339.2,3019,339.2l101.8-17.9c0,0-245.5-33.2-342.9,20.4c0,0-313.9-34.1-415.3,27
				c0,0,109.5,29.5,125.2,40.7c0,0-139.1,47.3-219.6,114.1l44.3,2.6c0,0-132.6,51.7-181.7,168.1l49.4-20.9c0,0-78.7,39.7-65,136.8
				C2116.3,818.7,2118.1,826.1,2120.5,832.4z M3281.9,785.6L3281.9,785.6L3281.9,785.6L3281.9,785.6z"/>
		</g>
	</g>
</g>
<path class="st14" d="M2471.7,1033.9c56.7-16.5,115.7-21.3,172.4-16.5c28.3,2.4,54.3,11.8,82.7,16.5c28.3,2.4,54.3,11.8,87.4,14.2
	l2.4-4.7c-21.3-26-47.2-44.9-77.9-54.3c-30.7-11.8-63.8-11.8-94.5-9.4c-33.1,2.4-61.4,7.1-92.1,14.2c-30.7,9.4-59,18.9-85,33.1
	L2471.7,1033.9z"/>
<path class="st14" d="M3283.7,1139.7c-21-20.8-45.6-37.7-72.5-55.3c-27.5-15.3-53.5-27.7-84.6-39.1c-28.8-10.8-60.6-19.9-93.4-17.1
	c-32.1,0.6-62.3,11.5-89.9,30.6l1,5.2c32.4,6.9,60,5,87.9,10.6c28.5,3.3,56.1,1.4,84,7c55.8,11.2,111.2,32.1,161.1,63.6
	L3283.7,1139.7z"/>
<path class="st14" d="M2629.5,1253.3c-25.6-2.8-40.2-35.4-36-73.8c4.2-38.4,28-66.8,51-64.3c25.6,2.8,40.2,35.4,36,73.8
	C2676.3,1227.4,2655.1,1256.1,2629.5,1253.3z"/>
<path class="st14" d="M3073.6,1302.8c-25.6-2.9-40-35.6-35.7-73.9s28.3-66.7,51.3-64.1c25.6,2.9,40,35.6,35.7,73.9
	C3120.6,1277,3099.2,1305.7,3073.6,1302.8z"/>
<path class="st15" d="M2906.5,1470c-43.7,7.3-87.3,2.4-123.7-26.7c-2.4,17,2.4,34,12.1,48.5c12.1,14.6,38.8,24.3,63.1,24.3
	C2887.1,1516,2913.8,1501.5,2906.5,1470z"/>
<g>
	<path class="st15" d="M2657.5,1835.3c55.8,50.9,184.3,67.9,247.4,60.6c63.1-7.3,99.4-206.2,82.5-203.7
		c-19.4,2.4-281.3-12.1-361.4-55.8C2626,1636.4,2604.1,1782,2657.5,1835.3z"/>
	<path class="st16" d="M2946.1,1772.3c2.4,0,0-2.4,2.4-2.4c9.7-26.7,17-53.4,21.8-80c-53.4,0-228-14.6-315.3-43.7
		c-2.4,14.6-7.3,29.1-12.1,46.1C2713.3,1755.3,2832.1,1791.7,2946.1,1772.3z"/>
</g>
</svg>
